<svg xmlns="http://www.w3.org/2000/svg" viewBox="0 0 864 864"><defs><style>.cls-1,.cls-13{fill:#fff;}.cls-2{fill:#de96a1;}.cls-3{fill:#bb8bba;}.cls-4{fill:#dd96a3;}.cls-5{fill:#4acb71;}.cls-6{fill:#ff735d;}.cls-7{fill:#7552c0;}.cls-8{fill:#ffe85d;}.cls-9{fill:#198539;}.cls-10{fill:#95e5ad;}.cls-11{fill:#78e599;}.cls-12{fill:#f4563a;}.cls-13{font-size:80px;font-family:PingFangSC-Light-GBpc-EUC-H, PingFang SC;}</style></defs><title>资源 8</title><g id="图层_2" data-name="图层 2"><g id="图层_8" data-name="图层 8"><rect class="cls-1" width="864" height="864"/><g id="图层_4" data-name="图层 4"><circle class="cls-2" cx="427" cy="498" r="316.5"/><path class="cls-3" d="M743.5,498c0,174.8-141.7,316.5-316.5,316.5S110.5,672.8,110.5,498"/><circle class="cls-4" cx="269" cy="241" r="114"/><circle class="cls-4" cx="246" cy="59" r="25"/><circle class="cls-4" cx="410.5" cy="140.5" r="8.5"/></g><g id="图层_5" data-name="图层 5"><rect class="cls-5" x="234.29" y="284.45" width="385.42" height="385.42" rx="69.44"/><rect class="cls-1" x="322.17" y="321.45" width="192.71" height="192.71" rx="58.11" transform="translate(-55.43 64.13) rotate(-8.22)"/><rect class="cls-6" x="356.85" y="356.14" width="123.33" height="123.33" rx="61.67"/><rect class="cls-7" x="289.02" y="552.7" width="290.61" height="42.14" rx="21.07"/><path class="cls-8" d="M405.42,624.39h-1.24a17.51,17.51,0,0,1-17.5-17.5V552.36h36.24v54.53A17.5,17.5,0,0,1,405.42,624.39Z"/><path class="cls-8" d="M448.81,624.39h-1.23a17.5,17.5,0,0,1-17.5-17.5V552.65h36.23v54.24A17.5,17.5,0,0,1,448.81,624.39Z"/><path class="cls-9" d="M234.29,573.52v26.9a69.48,69.48,0,0,0,47.82,66,58.95,58.95,0,0,0-47.82-92.9Z"/><circle class="cls-9" cx="271.32" cy="513.44" r="20.76"/><path class="cls-10" d="M578.21,290.32a81.75,81.75,0,0,0,41.5,89.62V353.89A69.45,69.45,0,0,0,578.21,290.32Z"/><path class="cls-10" d="M240.67,324.81a69.29,69.29,0,0,0-6.38,29.08v94.26a65.46,65.46,0,0,0,6.38-123.34Z"/><path class="cls-11" d="M310.82,669.87h82.59a44.45,44.45,0,0,0-82.59,0Z"/><rect x="372.27" y="371.55" width="92.5" height="92.5" rx="46.25"/><circle class="cls-1" cx="441.69" cy="373.47" r="11.61"/><path class="cls-1" d="M276.38,704.17h2l2.93,18.92c.25,2.25.6,4.21.85,6.57h.1c.66-2.36,1.22-4.32,1.83-6.55l3.42-11.72h2l3.46,11.72c.59,2.23,1.14,4.22,1.77,6.55h.17c.26-2.33.56-4.32.84-6.55l2.82-18.94h1.88L296,731.89H293.5l-3.82-13.14c-.45-1.62-.79-3.19-1.19-4.84h-.13c-.41,1.65-.76,3.22-1.24,4.84l-3.73,13.14h-2.45Z"/><path class="cls-1" d="M303.83,721.84c0-6.75,4.49-10.63,9.77-10.63s9.78,3.88,9.78,10.63-4.49,10.55-9.78,10.55S303.83,728.51,303.83,721.84Zm17.6,0c0-5.31-3.28-9-7.83-9s-7.82,3.67-7.82,9,3.27,8.91,7.82,8.91S321.43,727.15,321.43,721.84Z"/><path class="cls-1" d="M333.06,711.72h1.58l.21,5h.09a11.45,11.45,0,0,1,9.48-5.49,8.8,8.8,0,0,1,4.06.84l-.52,1.67a9.54,9.54,0,0,0-3.81-.73c-3.37,0-6.42,1.7-9.23,6.29v12.61h-1.86Z"/><path class="cls-1" d="M360.85,724.34v-11h-6.1V711.9l6.13-.18.25-6.68h1.58v6.68h10.74v1.62H362.71v11.14c0,3.93,1.13,6.28,5.63,6.28a13.87,13.87,0,0,0,5.36-1l.51,1.43a15.49,15.49,0,0,1-6.14,1.25C362.54,732.39,360.85,729.14,360.85,724.34Z"/><path class="cls-1" d="M390.78,713.34H380.69v-1.62h12v20.17h-1.87Zm-1.48-8.54a2,2,0,1,1,2,2A1.91,1.91,0,0,1,389.3,704.8Z"/><path class="cls-1" d="M406.23,711.72h1.57l.2,3.87h.17c2.32-2.5,4.71-4.38,8-4.38,4.89,0,7.24,2.64,7.24,8.11v12.57h-1.86V719.57c0-4.51-1.68-6.68-5.68-6.68-2.86,0-4.83,1.49-7.74,4.54v14.46h-1.86Z"/><path class="cls-1" d="M452.77,704.17h2l2.94,18.92c.25,2.25.6,4.21.85,6.57h.1c.65-2.36,1.22-4.32,1.83-6.55l3.42-11.72h2l3.46,11.72c.58,2.23,1.14,4.22,1.77,6.55h.17c.26-2.33.55-4.32.84-6.55l2.82-18.94h1.88l-4.43,27.72H469.9l-3.82-13.14c-.45-1.62-.79-3.19-1.19-4.84h-.13c-.42,1.65-.76,3.22-1.24,4.84l-3.73,13.14h-2.45Z"/><path class="cls-1" d="M480.22,721.84c0-6.75,4.5-10.63,9.78-10.63s9.78,3.88,9.78,10.63-4.49,10.55-9.78,10.55S480.22,728.51,480.22,721.84Zm17.61,0c0-5.31-3.28-9-7.83-9s-7.83,3.67-7.83,9,3.28,8.91,7.83,8.91S497.83,727.15,497.83,721.84Z"/><path class="cls-1" d="M509.46,711.72H511l.21,5h.09a11.43,11.43,0,0,1,9.48-5.49,8.8,8.8,0,0,1,4.06.84l-.52,1.67a9.57,9.57,0,0,0-3.81-.73c-3.37,0-6.43,1.7-9.23,6.29v12.61h-1.86Z"/><path class="cls-1" d="M539.17,725.8V703.29h-7.65v-1.62H541v24.39c0,3.18,1.53,4.69,4.4,4.69a9.47,9.47,0,0,0,4.16-1l.6,1.44a10.42,10.42,0,0,1-5,1.25C541.35,732.39,539.17,730.39,539.17,725.8Z"/><path class="cls-1" d="M555.82,721.84c0-6.51,4.48-10.63,9.49-10.63a9.72,9.72,0,0,1,6.62,2.85H572l-.11-4.07v-8.32h1.87v30.22H572.2l-.2-3h-.09a10.46,10.46,0,0,1-7.2,3.5C559.41,732.39,555.82,728.65,555.82,721.84Zm16.09,5.2V715.83c-2.28-2.15-4.37-3-6.47-3-4.26,0-7.67,3.9-7.67,9,0,5.36,2.7,8.91,7.2,8.91C567.33,730.74,569.68,729.42,571.91,727Z"/><rect class="cls-12" x="524" y="252" width="140" height="96" rx="48"/><text class="cls-13" transform="translate(554.16 325.12)">18</text></g></g></g></svg>