<svg xmlns="http://www.w3.org/2000/svg" viewBox="0 0 239.22 263"><defs><style>.cls-1{fill:#4acb71;}.cls-2{fill:#95e5ad;}.cls-3{fill:#198539;}.cls-4{fill:#bff5ff;}.cls-5{fill:#ffd2aa;}.cls-6{fill:#ff735d;}.cls-7{fill:#fff;}</style></defs><title>资源 1</title><g id="图层_2" data-name="图层 2"><g id="图层_3" data-name="图层 3"><path class="cls-1" d="M131.5,263C59,263,0,204,0,131.5S59,0,131.5,0A130.78,130.78,0,0,1,234.94,50.3,20,20,0,1,1,203.49,75a91.5,91.5,0,1,0-.18,113.19A20,20,0,0,1,234.69,213,130.88,130.88,0,0,1,131.5,263Z"/></g><g id="图层_1-2" data-name="图层 1"><path class="cls-2" d="M85,18A28,28,0,0,0,66.58,67.08,91.52,91.52,0,0,1,112.7,41.94,28,28,0,0,0,85,18Z"/><path class="cls-2" d="M2.62,157.66A20,20,0,0,0,19,138,20,20,0,0,0,.68,118.08a132.2,132.2,0,0,0,1.94,39.58Z"/><path class="cls-2" d="M88,223a14,14,0,0,0,28,0c0-.45,0-.89-.07-1.33a90.38,90.38,0,0,1-24.44-7.9A13.93,13.93,0,0,0,88,223Z"/><path class="cls-2" d="M178.84,229a39.06,39.06,0,0,0-38.68,33.71A130.59,130.59,0,0,0,206,240,39,39,0,0,0,178.84,229Z"/><path class="cls-3" d="M48.69,221.55a10.44,10.44,0,0,0-18.64-6.47A132.9,132.9,0,0,0,44.43,230,10.41,10.41,0,0,0,48.69,221.55Z"/><path class="cls-3" d="M190.69,44.66a11.35,11.35,0,1,0-22.69,0,11.69,11.69,0,0,0,.43,3.08,90.52,90.52,0,0,1,14.14,7.79A11.35,11.35,0,0,0,190.69,44.66Z"/><path class="cls-3" d="M19.17,74.55a16.81,16.81,0,0,0,12.29-28.3,132.32,132.32,0,0,0-18,27.29A16.77,16.77,0,0,0,19.17,74.55Z"/><circle class="cls-3" cx="202.67" cy="212.98" r="7.33"/><circle class="cls-3" cx="35.36" cy="170.82" r="7.33"/></g><g id="图层_4" data-name="图层 4"><rect class="cls-4" x="78" y="61.19" width="111.42" height="140.62" rx="8.42"/><rect class="cls-5" x="127" y="82" width="43" height="8"/><rect class="cls-5" x="127" y="99" width="43" height="8"/><rect class="cls-5" x="98" y="116" width="72" height="8"/><rect class="cls-5" x="98" y="135" width="72" height="8"/><rect class="cls-5" x="98" y="155" width="72" height="8"/><rect class="cls-5" x="98" y="174" width="72" height="8"/></g><g id="图层_2-2" data-name="图层 2"><rect class="cls-6" x="53.88" y="44" width="64.25" height="64.25" rx="32.12"/><rect x="61.91" y="52.03" width="48.18" height="48.18" rx="24.09"/><circle class="cls-7" cx="98.07" cy="53.03" r="6.05"/></g></g></svg>