<svg xmlns="http://www.w3.org/2000/svg" viewBox="0 0 864 864"><defs><style>.cls-1{fill:#fff;}.cls-2{fill:#de96a1;}.cls-3{fill:#bb8bba;}.cls-4{fill:#dd96a3;}.cls-17,.cls-5{fill:#634192;}.cls-6{fill:#4c3783;}.cls-7{fill:#8c53ad;}.cls-8{fill:#f5600c;}.cls-9{fill:#f8ddd2;}.cls-10{fill:#4acb71;}.cls-11{fill:#ff735d;}.cls-12{fill:#7552c0;}.cls-13{fill:#ffe85d;}.cls-14{fill:#198539;}.cls-15{fill:#95e5ad;}.cls-16{fill:#78e599;}.cls-17{opacity:0.1;}.cls-18{opacity:0.8;}.cls-19{fill:#e28484;}.cls-20{fill:#e19e89;}</style></defs><title>资源 9</title><g id="图层_2" data-name="图层 2"><g id="图层_10" data-name="图层 10"><g id="图层_11" data-name="图层 11"><rect class="cls-1" width="864" height="864"/></g><g id="图层_2-2" data-name="图层 2"><circle class="cls-2" cx="403" cy="432" r="316.5"/><path class="cls-3" d="M719.5,432c0,174.8-141.7,316.5-316.5,316.5S86.5,606.8,86.5,432"/><circle class="cls-4" cx="582" cy="182" r="114"/><circle class="cls-4" cx="765" cy="149" r="25"/><circle class="cls-4" cx="386.5" cy="74.5" r="8.5"/></g><g id="图层_3" data-name="图层 3"><path class="cls-5" d="M239.34,210h352a14.95,14.95,0,0,1,14.95,14.95v514.1A14.95,14.95,0,0,1,591.3,754h-352a39.59,39.59,0,0,1-39.59-39.59V249.59A39.59,39.59,0,0,1,239.34,210Z"/><path class="cls-6" d="M250,210H239.34a39.58,39.58,0,0,0-39.59,39.59V714.41A39.58,39.58,0,0,0,239.34,754H250Z"/><path class="cls-7" d="M591.3,210H415V754H591.3a15,15,0,0,0,15-15V225A15,15,0,0,0,591.3,210Z"/><path class="cls-1" d="M247.25,701h347.5a0,0,0,0,1,0,0v39a0,0,0,0,1,0,0H247.25a19.5,19.5,0,0,1-19.5-19.5v0A19.5,19.5,0,0,1,247.25,701Z"/><polygon class="cls-8" points="315 772.64 345 802.64 345 722 285 722 285 802.64 315 772.64"/><rect class="cls-9" x="320" y="260" width="193" height="22" rx="11"/><circle class="cls-10" cx="416.5" cy="469.42" r="131.75"/><rect class="cls-1" x="344.83" y="362.97" width="131.75" height="131.75" rx="45.01" transform="translate(-57.09 63.12) rotate(-8.22)"/><rect class="cls-11" x="368.54" y="386.68" width="84.32" height="84.32" rx="42.16"/><rect class="cls-12" x="322.17" y="521.07" width="198.68" height="28.81" rx="14.41"/><path class="cls-13" d="M401.32,570.08h0a12.39,12.39,0,0,1-12.38-12.39V520.84h24.77v36.85A12.39,12.39,0,0,1,401.32,570.08Z"/><path class="cls-13" d="M431,570.08h0a12.39,12.39,0,0,1-12.39-12.39V521h24.78v36.65A12.39,12.39,0,0,1,431,570.08Z"/><path class="cls-14" d="M322.24,561.46a40.43,40.43,0,0,0-15.85-19.68A132.35,132.35,0,0,0,322.24,561.46Z"/><circle class="cls-14" cx="310.06" cy="494.23" r="14.19"/><path class="cls-15" d="M316.86,406.65a44.39,44.39,0,0,0-4-18.55,131.15,131.15,0,0,0-26.52,61A44.77,44.77,0,0,0,316.86,406.65Z"/><path class="cls-16" d="M392.56,599a30.35,30.35,0,0,0-39.8-14.25A131.07,131.07,0,0,0,392.56,599Z"/><rect x="379.08" y="397.22" width="63.24" height="63.24" rx="31.62"/><circle class="cls-1" cx="426.55" cy="398.53" r="7.94"/><path class="cls-17" d="M416.5,337.67a131.75,131.75,0,0,0,0,263.5"/><g class="cls-18"><path class="cls-19" d="M301.11,641.22h4.26l-1.46,9.4c-.17,1.18-.5,3.28-.76,4.68h.14c.54-1.54,1.15-3.28,1.74-4.68l2-4.78h2.69l.17,4.78c0,.9,0,3.08,0,4.68H310c.31-1.43.73-3.19,1.09-4.7l2.27-9.38h4.26l-5.55,18.22h-4.87l.17-5.4c0-1.18.08-2.49.17-3.53h-.09c-.3,1.09-.72,2.35-1.14,3.53l-1.88,5.4h-5Z"/><path class="cls-19" d="M316.62,652.28c0-6.44,3.89-11.37,9.3-11.37,3.78,0,6.21,2.8,6.21,7.5,0,6.44-3.86,11.37-9.24,11.37C319.09,659.78,316.62,657,316.62,652.28ZM327.54,648c0-2.24-.64-3.19-2.07-3.19-2.41,0-4.26,3.36-4.26,8,0,2.24.68,3.2,2.13,3.2C325.75,655.92,327.54,652.56,327.54,648Z"/><path class="cls-19" d="M336.56,641.24h5.82c3.64,0,6.58,1.29,6.58,5a6.45,6.45,0,0,1-4.45,6.24l2.86,6.94h-5l-2.18-6.27h-1.6l-1.23,6.27h-4.48Zm4.11,8.4c2.41,0,3.76-1.17,3.76-2.91,0-1.34-.9-2-2.58-2h-1.54l-.95,4.87Z"/><path class="cls-19" d="M356.77,645h-5.32l.73-3.76H367.3l-.73,3.76h-5.32l-2.85,14.44h-4.48Z"/><path class="cls-19" d="M367.3,655.69h4.15L373.63,645h-4.2l.78-3.76H383l-.79,3.76h-4.14l-2.19,10.69h4.2l-.78,3.75H366.52Z"/><path class="cls-19" d="M386.9,641.24h4.48l1.6,8.68.58,4h.12c.16-2,.5-5.46.75-6.78l1.18-5.94h4.23l-3.64,18.2h-4.37l-1.77-8.68-.58-4h-.11c-.17,2-.45,5.29-.79,7.06l-1.09,5.65h-4.23Z"/></g><g class="cls-18"><path class="cls-20" d="M431.53,641.22h4.25l-1.45,9.4c-.17,1.18-.51,3.28-.76,4.68h.14c.53-1.54,1.15-3.28,1.74-4.68l2-4.78h2.69l.17,4.78c0,.9,0,3.08,0,4.68h.14c.31-1.43.73-3.19,1.09-4.7l2.27-9.38h4.25l-5.54,18.22h-4.87l.17-5.4c0-1.18.08-2.49.17-3.53h-.09c-.31,1.09-.73,2.35-1.15,3.53l-1.87,5.4h-5Z"/><path class="cls-20" d="M447,652.28c0-6.44,3.89-11.37,9.29-11.37,3.78,0,6.22,2.8,6.22,7.5,0,6.44-3.86,11.37-9.24,11.37C449.5,659.78,447,657,447,652.28ZM458,648c0-2.24-.65-3.19-2.07-3.19-2.41,0-4.26,3.36-4.26,8,0,2.24.67,3.2,2.13,3.2C456.17,655.92,458,652.56,458,648Z"/><path class="cls-20" d="M467,641.24h5.83c3.64,0,6.58,1.29,6.58,5a6.45,6.45,0,0,1-4.45,6.24l2.85,6.94h-4.95l-2.19-6.27h-1.59l-1.24,6.27h-4.48Zm4.12,8.4c2.41,0,3.75-1.17,3.75-2.91,0-1.34-.89-2-2.57-2h-1.54l-1,4.87Z"/><path class="cls-20" d="M485,641.24h4.48l-2.92,14.45h7.84l-.72,3.75H481.37Z"/><path class="cls-20" d="M500.57,641.24h4.26c4.82,0,7.78,2.24,7.78,7.17,0,7.39-4.25,11-9.68,11h-6Zm2.24,14.62c2.75,0,5.21-1.9,5.21-7.17,0-2.85-1.45-3.86-3.3-3.86h-.39l-2.19,11Z"/></g></g></g></g></svg>