<svg xmlns="http://www.w3.org/2000/svg" viewBox="0 0 864 864"><defs><style>.cls-1,.cls-28,.cls-29{fill:#fff;}.cls-2{fill:#de96a1;}.cls-3{fill:#bb8bba;}.cls-4{fill:#c9ddff;}.cls-5{fill:none;stroke:#fcc529;}.cls-28,.cls-29,.cls-5{stroke-miterlimit:10;}.cls-29,.cls-5{stroke-width:4px;}.cls-6{fill:#6bb8fa;}.cls-7{fill:#3684c1;}.cls-8{fill:#ea5731;}.cls-9{fill:#ffc79f;}.cls-10{fill:#f26868;}.cls-11{fill:#9edad0;}.cls-12{fill:#ffbf37;}.cls-13{fill:#111159;}.cls-14{fill:#cb8aff;}.cls-15{fill:#62c3b1;}.cls-16{fill:#294350;}.cls-17{fill:#e35a49;}.cls-18{fill:#4acb71;}.cls-19,.cls-30{fill:#95e5ad;}.cls-19{opacity:0.2;}.cls-20,.cls-24{opacity:0.6;}.cls-21{fill:#45b693;}.cls-22{fill:#ff735d;}.cls-23,.cls-24{fill:#198539;}.cls-25{fill:#78e599;}.cls-26{fill:#dadce0;}.cls-27{fill:#7552c0;}.cls-28,.cls-29{stroke:#7552c0;}.cls-28{stroke-width:8px;}</style></defs><title>资源 10</title><g id="图层_2" data-name="图层 2"><g id="图层_9" data-name="图层 9"><g id="图层_7" data-name="图层 7"><rect class="cls-1" width="864" height="864"/></g><g id="图层_6" data-name="图层 6"><circle class="cls-2" cx="456" cy="429" r="316.5"/><path class="cls-3" d="M772.5,429c0,174.8-141.7,316.5-316.5,316.5S139.5,603.8,139.5,429"/><circle class="cls-3" cx="645" cy="626" r="114"/><circle class="cls-3" cx="644" cy="781" r="25"/><circle class="cls-3" cx="686.5" cy="837.5" r="8.5"/><circle class="cls-4" cx="637.73" cy="208.29" r="80.73"/><ellipse class="cls-5" cx="687.65" cy="144.85" rx="23.63" ry="52.18" transform="translate(148.62 595.72) rotate(-51.81)"/><circle class="cls-1" cx="645.04" cy="199.01" r="29.54"/><circle class="cls-6" cx="645.42" cy="197.63" r="17.07"/><circle cx="645.42" cy="197.63" r="10.91"/><circle class="cls-1" cx="644.5" cy="186.86" r="3.5"/><circle class="cls-1" cx="644.34" cy="208.98" r="1.76"/><circle class="cls-7" cx="131.2" cy="270.26" r="77.1"/><path class="cls-8" d="M122.56,144.55a48.91,48.91,0,0,1,12.88,61.55l14.91,8a48.89,48.89,0,0,0-27.79-69.54Z"/><path class="cls-8" d="M7.24,247.66a49.78,49.78,0,0,0,2.45,8.13A48.9,48.9,0,0,0,73.25,283L67,267.32A48.91,48.91,0,0,1,7.24,247.66Z"/><circle class="cls-1" cx="141.05" cy="281.63" r="28.21"/><circle class="cls-9" cx="141.05" cy="281.63" r="8.97"/><circle cx="141.05" cy="281.63" r="2.82"/><ellipse class="cls-10" cx="295.46" cy="111.68" rx="35.11" ry="13.51" transform="translate(-4.45 12.57) rotate(-2.42)"/><ellipse class="cls-10" cx="466.25" cy="75.04" rx="35.11" ry="13.51" transform="translate(5.47 178.5) rotate(-21.8)"/><circle class="cls-11" cx="385.2" cy="113.61" r="73.83"/><path class="cls-12" d="M312,123a56,56,0,0,0-37.64-13.44,56.72,56.72,0,0,0-13.72,1.94,5.51,5.51,0,0,0-.22,1.65c.32,7.45,16.28,12.83,35.65,12A83.09,83.09,0,0,0,312,123Z"/><path class="cls-12" d="M455.85,92.14a56,56,0,0,1,28.82-27.7A57.05,57.05,0,0,1,498,60.59a5.17,5.17,0,0,1,.87,1.41c2.77,6.93-9.58,18.38-27.59,25.58A83.94,83.94,0,0,1,455.85,92.14Z"/><circle class="cls-1" cx="386.33" cy="118.89" r="27.01"/><circle class="cls-13" cx="386.86" cy="121.34" r="18.99"/><circle class="cls-14" cx="386.86" cy="121.34" r="12.14"/><circle class="cls-1" cx="376.99" cy="114.47" r="3.89"/><circle class="cls-1" cx="395.81" cy="130.33" r="1.96"/><path class="cls-15" d="M846.28,504.68c-.19.44-.36.88-.56,1.32a12.61,12.61,0,0,0-12.4,16.79,49.92,49.92,0,0,1-10,7,10.68,10.68,0,0,0-18.57,5.59,50.75,50.75,0,0,1-8.45.1,47.8,47.8,0,0,0-2.52-4.18c-9.06-13.16-23.45-19.63-35.17-16.85-.18-.25-.37-.48-.54-.74a50.56,50.56,0,0,1,40-79.2Z"/><rect class="cls-16" x="809.98" y="481.65" width="13.62" height="56.42" rx="3.5" transform="translate(-145.12 552.68) rotate(-34.52)"/><rect class="cls-16" x="828.35" y="460.91" width="9.73" height="56.42" rx="2.5" transform="translate(-107.37 710) rotate(-43.63)"/><rect class="cls-16" x="787.18" y="486.87" width="9.73" height="56.42" rx="2.5" transform="translate(-136 337.93) rotate(-22.23)"/><path class="cls-15" d="M746.18,359.16c-.47,0-.95,0-1.43,0a12.62,12.62,0,0,1-20.12,5.58,50.79,50.79,0,0,0-5.41,3.23,50.07,50.07,0,0,0-4.68,3.66A10.68,10.68,0,0,1,702.67,387a50.38,50.38,0,0,0-3.11,7.86,48.17,48.17,0,0,1,3,3.85c9.05,13.17,9.94,28.92,3.16,38.87.17.25.31.52.49.77a50.56,50.56,0,0,0,88.26-9Z"/><rect class="cls-16" x="723.99" y="356.63" width="13.62" height="56.42" rx="3.5" transform="translate(-89.41 481.93) rotate(-34.52)"/><rect class="cls-16" x="751.18" y="348.71" width="9.73" height="56.42" rx="2.5" transform="translate(-88.6 360.94) rotate(-25.41)"/><rect class="cls-16" x="712.21" y="377.88" width="9.73" height="56.42" rx="2.5" transform="translate(-69.76 651.02) rotate(-46.81)"/><rect class="cls-16" x="711.48" y="368.79" width="107" height="169.25" rx="53.5" transform="translate(705.02 -433.81) rotate(55.48)"/><rect class="cls-1" x="751.12" y="422.85" width="46.02" height="47.09" rx="5.36" transform="translate(1353.87 -233.64) rotate(100.48)"/><circle class="cls-17" cx="773.84" cy="446.38" r="9.82"/><circle cx="774.1" cy="445.69" r="5.08"/><circle class="cls-1" cx="772.65" cy="440.67" r="2.26"/><circle class="cls-18" cx="394.72" cy="543.52" r="233.52"/><path class="cls-19" d="M218.13,432.27A79,79,0,0,0,211,399.38a232.45,232.45,0,0,0-47,108.11A79.35,79.35,0,0,0,218.13,432.27Z"/><path class="cls-1" d="M345,575c-19-4-21-3-49-14-18-7-27-11-41-21a47.51,47.51,0,0,1-20.61-24.44c-4.07-11.2-3-23.61,1.61-36.56l30-76c12.79-27.54,51-28,65.3-21.34a10.64,10.64,0,0,0,1.45.57l71.1,24.42A45,45,0,0,1,431,464.21L399.9,551C391.51,574.39,373,581,345,575Z"/><g class="cls-20"><path class="cls-21" d="M256.21,576.73a385.2,385.2,0,0,1-14.49-83.87c-2.16-74,26.5-148.48,143.59-182.66a232.33,232.33,0,0,0-123,41h0l-.19.13L259.69,353l-.43.31-2.48,1.79-.31.23-2.57,1.91-.09.07a235.1,235.1,0,0,0-21,18l0,0c-.81.78-1.61,1.57-2.41,2.36l-.1.1c-.8.79-1.59,1.59-2.37,2.38l-.06.07A236.52,236.52,0,0,0,209.75,401l-.12.16c-.63.82-1.26,1.65-1.88,2.48l-.3.4c-.59.79-1.17,1.58-1.75,2.38l-.37.51c-.57.78-1.13,1.56-1.68,2.35l-.39.56c-.55.78-1.09,1.56-1.63,2.35-.13.19-.25.38-.38.56-.54.8-1.08,1.61-1.61,2.42l-.29.43c-.56.86-1.12,1.72-1.67,2.58h0c-2.34,3.67-4.57,7.42-6.71,11.22l-.51.91c-.38.68-.75,1.36-1.12,2-.21.4-.43.8-.65,1.2-.34.63-.67,1.27-1,1.9l-.72,1.38-.4.78h0A232.48,232.48,0,0,0,161.2,543.52c0,129,104.55,233.51,233.52,233.51,1.57,0,3.13,0,4.7,0C334.74,735.13,281.55,664.63,256.21,576.73Z"/></g><rect class="cls-22" x="256.82" y="404.96" width="127.77" height="127.77" rx="63.89"/><path class="cls-23" d="M227.65,706.64a71.61,71.61,0,0,0-28.09-34.87A234.87,234.87,0,0,0,227.65,706.64Z"/><circle class="cls-24" cx="558.23" cy="588.32" r="31.32"/><path class="cls-25" d="M352.29,773.18a53.78,53.78,0,0,0-70.53-25.26A231.85,231.85,0,0,0,352.29,773.18Z"/><rect x="272.79" y="420.93" width="95.83" height="95.83" rx="47.91"/><path class="cls-1" d="M620.07,590.88c-145.86,95.5-333,77.89-458.3-31.27C170,681.07,271.17,777,394.72,777,508.36,777,603,695.85,623.93,588.32,622.65,589.18,621.36,590,620.07,590.88Z"/><circle class="cls-1" cx="363.71" cy="446.92" r="12.03"/><path class="cls-26" d="M274.77,627.58a379,379,0,0,1-113-68C170,681.07,271.17,777,394.72,777c1.57,0,3.14,0,4.71,0C347.76,743.56,303.44,691.84,274.77,627.58Z"/><path class="cls-27" d="M619.21,608a232.06,232.06,0,0,0,6.63-31q-2.87,2-5.77,3.86C474,676.5,286.55,658.72,161.28,549.18a234.42,234.42,0,0,0,2.89,31.58C292.47,680.55,473.41,695.74,619.21,608Z"/><circle class="cls-28" cx="281" cy="628" r="47"/><circle class="cls-29" cx="274.36" cy="627.35" r="27.65"/><path class="cls-30" d="M628.23,543.12a232.87,232.87,0,0,0-77.54-173.38,99,99,0,0,0,77.54,173.38Z"/></g></g></g></svg>