<svg xmlns="http://www.w3.org/2000/svg" viewBox="0 0 904.18 778.54"><defs><style>.cls-1{fill:#473359;}.cls-2{fill:#5aa2ab;}.cls-3{fill:#a75fff;opacity:0.2;}.cls-4{fill:#8b3a64;}.cls-12,.cls-4,.cls-9{opacity:0.5;}.cls-5{fill:#f2b014;}.cls-6{fill:#ef841d;}.cls-7{fill:#fac636;}.cls-8{fill:#f0841c;}.cls-9{fill:#8aa7ff;}.cls-10{fill:#07727f;}.cls-11{fill:#83d5eb;}.cls-12{fill:#454589;}.cls-13{fill:#efe26d;}.cls-14{fill:#b08c55;}.cls-15{fill:#d6d3b0;}.cls-16{fill:#fffcf8;}.cls-17{fill:#bf456d;}.cls-18{fill:#bf3c74;}.cls-19{fill:#ee6a90;}.cls-20{fill:#fffdfc;}.cls-21{fill:none;stroke:#d4d2ba;stroke-miterlimit:10;stroke-width:6px;}.cls-22{fill:#e1a340;}.cls-23{fill:#ae7470;}.cls-24{fill:#c75274;}.cls-25{fill:#eb6f8d;}.cls-26{fill:#f1afcc;}.cls-27{fill:#eee67f;}.cls-28{fill:#d5d4ad;}.cls-29{fill:#fefdfd;}.cls-30{fill:#e7f261;}.cls-31{fill:#ee6a8e;}.cls-32{fill:#6a453c;}.cls-33{fill:#d7cfad;}.cls-34{fill:#fbf07e;}.cls-35{fill:#fff;}.cls-36{fill:#c9cbb1;}.cls-37{fill:#b79c73;}.cls-38{fill:#cdb8dd;}.cls-39{fill:#4acb71;}.cls-40{fill:#ff735d;}.cls-41{fill:#7552c0;}.cls-42{fill:#ffe85d;}.cls-43{fill:#198539;}.cls-44{fill:#95e5ad;}.cls-45{fill:#78e599;}</style></defs><title>资源 3</title><g id="图层_2" data-name="图层 2"><g id="图层_6" data-name="图层 6"><path class="cls-1" d="M321.18,4c-28.84,3.11-226,43-290,202-91,226.18,31.82,433.92,181,463,118,23,130-29.53,232,1,101.43,30.34,83,93,162,107,141.85,25.13,261-261.51,197-488C739.31,63,543.59-20,321.18,4Z"/><circle class="cls-2" cx="92.18" cy="445" r="8"/><circle class="cls-2" cx="179.18" cy="530" r="5"/><circle class="cls-2" cx="246.68" cy="613.5" r="3.5"/><circle class="cls-2" cx="701.18" cy="204" r="8"/><circle class="cls-2" cx="724.68" cy="257.5" r="3.5"/><circle class="cls-2" cx="760.18" cy="252" r="5"/><circle class="cls-2" cx="195.18" cy="638" r="5"/><circle class="cls-2" cx="272.68" cy="621.5" r="3.5"/></g><g id="背景"><circle class="cls-3" cx="666.18" cy="523" r="238"/><circle class="cls-4" cx="666.18" cy="523" r="182.62"/><circle class="cls-5" cx="666.18" cy="523" r="154.41"/><circle class="cls-6" cx="666.18" cy="523" r="141.87"/><path class="cls-7" d="M550.32,605a15.41,15.41,0,0,1,21.75-1.2L583.54,614l184.9-206.52A154,154,0,0,0,547.52,621,15.41,15.41,0,0,1,550.32,605Z"/><path class="cls-7" d="M768.37,407.59l-20.53,22.94a15.39,15.39,0,0,0,21.66-1.27h0A15.39,15.39,0,0,0,768.37,407.59Z"/><rect class="cls-6" x="698.62" y="441.17" width="110.46" height="30.8" rx="15.4" transform="translate(496.78 -386.43) rotate(41.84)"/><rect class="cls-7" x="642.76" y="432.48" width="110.46" height="30.8" rx="15.4" transform="translate(476.74 -351.39) rotate(41.84)"/><rect class="cls-7" x="629.25" y="503.04" width="110.46" height="30.8" rx="15.4" transform="translate(520.36 -324.38) rotate(41.84)"/><rect class="cls-6" x="641.59" y="472.76" width="110.46" height="30.8" rx="15.4" transform="translate(503.31 -340.34) rotate(41.84)"/><rect class="cls-7" x="507.61" y="559.44" width="110.46" height="30.8" rx="15.4" transform="translate(526.97 -228.86) rotate(41.84)"/><rect class="cls-7" x="551.66" y="516.23" width="110.46" height="30.8" rx="15.4" transform="translate(509.38 -269.27) rotate(41.84)"/><rect class="cls-6" x="587.65" y="507.96" width="110.46" height="30.8" rx="15.4" transform="translate(513.04 -295.38) rotate(41.84)"/><rect class="cls-8" x="568.38" y="572.52" width="110.46" height="30.8" rx="15.4" transform="translate(551.19 -266.06) rotate(41.84)"/><rect class="cls-7" x="652.2" y="577.61" width="46.48" height="30.8" rx="15.4" transform="translate(567.8 -299.34) rotate(41.84)"/></g><g id="图层_5" data-name="图层 5"><circle class="cls-9" cx="375.68" cy="672.5" r="52.5"/><circle class="cls-10" cx="375.68" cy="672.5" r="26.31"/><circle class="cls-11" cx="375.68" cy="672.5" r="16.7"/><circle class="cls-12" cx="585.32" cy="91.33" r="52.5"/><circle class="cls-10" cx="585.32" cy="91.33" r="26.31"/><circle class="cls-11" cx="585.32" cy="91.33" r="16.7"/><circle class="cls-12" cx="176.31" cy="109.69" r="64.7"/><circle class="cls-10" cx="176.31" cy="109.69" r="32.42"/><circle class="cls-11" cx="176.31" cy="109.69" r="20.58"/></g><g id="wortin"><rect class="cls-13" x="310.61" y="183.89" width="268" height="364" rx="32.54" transform="translate(282.02 -186.49) rotate(34.15)"/><rect class="cls-14" x="309.54" y="178.33" width="268" height="364" rx="32.54" transform="translate(278.72 -186.85) rotate(34.15)"/><rect class="cls-15" x="322.46" y="159.3" width="268" height="364" rx="32.54" transform="translate(270.26 -197.37) rotate(34.15)"/><path class="cls-16" d="M603.76,464.24a36.5,36.5,0,1,1-60.41-41"/><path class="cls-17" d="M527.15,394.88h0a26,26,0,0,1,26,26v42.71a26,26,0,0,1-26,26h0a0,0,0,0,1,0,0V394.88A0,0,0,0,1,527.15,394.88Z" transform="translate(341.35 -226.95) rotate(34.15)"/><path class="cls-18" d="M548.61,428.74h8.76a8.24,8.24,0,0,1,8.24,8.24V470.5a8.24,8.24,0,0,1-8.24,8.24h-8.76a0,0,0,0,1,0,0v-50a0,0,0,0,1,0,0Z" transform="translate(350.73 -234.49) rotate(34.15)"/><path class="cls-16" d="M609.9,386.4h0a17,17,0,0,1,17,17v60a0,0,0,0,1,0,0h-34a0,0,0,0,1,0,0v-60a17,17,0,0,1,17-17Z" transform="translate(343.64 -269.09) rotate(34.15)"/><path class="cls-19" d="M547.6,407.3a24,24,0,0,1-25.81,40.48"/><path class="cls-20" d="M369.81,202.7H516.44a39.44,39.44,0,0,1,39.44,39.44V519.2a0,0,0,0,1,0,0H330.37a0,0,0,0,1,0,0V242.14A39.44,39.44,0,0,1,369.81,202.7Z" transform="translate(279 -186.5) rotate(34.15)"/><rect class="cls-21" x="366.74" y="387.64" width="84" height="48" rx="16.36" transform="translate(301.52 -158.47) rotate(34.15)"/><circle class="cls-22" cx="397.2" cy="389.92" r="4"/><circle class="cls-22" cx="390.18" cy="400.26" r="4"/><rect class="cls-23" x="403.33" y="402.48" width="36.57" height="8" rx="4" transform="translate(300.84 -166.58) rotate(34.15)"/><rect class="cls-23" x="396.31" y="412.82" width="36.57" height="8" rx="4" transform="translate(305.44 -160.86) rotate(34.15)"/><rect class="cls-23" x="454.22" y="444.24" width="36.57" height="8" rx="4" transform="translate(333.06 -187.94) rotate(34.15)"/><rect class="cls-23" x="333.39" y="362.29" width="36.57" height="8" rx="4" transform="translate(266.23 -134.25) rotate(34.15)"/><rect class="cls-24" x="258.11" y="459.06" width="225.5" height="16.89" transform="translate(326.35 -127.57) rotate(34.15)"/><rect class="cls-25" x="336.36" y="450.01" width="69" height="35" rx="17.5" transform="translate(326.35 -127.57) rotate(34.15)"/><rect class="cls-26" x="353.83" y="458.22" width="46" height="17" rx="8.5" transform="translate(326.94 -131.06) rotate(34.15)"/><path class="cls-27" d="M219.73,463h71a0,0,0,0,1,0,0v67.45A21.55,21.55,0,0,1,269.18,552h-27.9a21.55,21.55,0,0,1-21.55-21.55V463a0,0,0,0,1,0,0Z" transform="translate(328.86 -55.77) rotate(34.15)"/><path class="cls-28" d="M218.66,457.44h71a0,0,0,0,1,0,0v67.45a21.55,21.55,0,0,1-21.55,21.55h-27.9a21.55,21.55,0,0,1-21.55-21.55V457.44A0,0,0,0,1,218.66,457.44Z" transform="translate(325.56 -56.13) rotate(34.15)"/><path class="cls-29" d="M230.45,440.06h71a0,0,0,0,1,0,0v67.45a21.55,21.55,0,0,1-21.55,21.55H252a21.55,21.55,0,0,1-21.55-21.55V440.06a0,0,0,0,1,0,0Z" transform="translate(317.84 -65.74) rotate(34.15)"/><path class="cls-30" d="M347.59,549.72h71a0,0,0,0,1,0,0v67.45A21.55,21.55,0,0,1,397,638.72h-27.9a21.55,21.55,0,0,1-21.55-21.55V549.72A0,0,0,0,1,347.59,549.72Z" transform="translate(399.58 -112.59) rotate(34.15)"/><path class="cls-28" d="M346.53,544.16h71a0,0,0,0,1,0,0v67.45A21.55,21.55,0,0,1,396,633.16h-27.9a21.55,21.55,0,0,1-21.55-21.55V544.16A0,0,0,0,1,346.53,544.16Z" transform="translate(396.28 -112.95) rotate(34.15)"/><path class="cls-29" d="M358.31,526.78h71a0,0,0,0,1,0,0v67.45a21.55,21.55,0,0,1-21.55,21.55h-27.9a21.55,21.55,0,0,1-21.55-21.55V526.78A0,0,0,0,1,358.31,526.78Z" transform="translate(388.56 -122.56) rotate(34.15)"/><rect class="cls-31" x="252.15" y="451.73" width="45" height="40" rx="16.39" transform="translate(312.14 -72.84) rotate(34.15)"/><rect class="cls-31" x="380.01" y="538.46" width="45" height="40" rx="16.39" transform="matrix(0.83, 0.56, -0.56, 0.83, 382.86, -129.66)"/><rect class="cls-32" x="405.7" y="172.71" width="280" height="74" rx="35.5" transform="matrix(0.83, 0.56, -0.56, 0.83, 211.79, -270.15)"/><rect class="cls-33" x="417.05" y="185.58" width="257.3" height="48.25" rx="22.34" transform="translate(211.79 -270.15) rotate(34.15)"/><rect class="cls-34" x="479.63" y="160.07" width="152.89" height="68.71" rx="31.53" transform="translate(204.99 -278.61) rotate(34.15)"/><rect class="cls-35" x="483.43" y="162.89" width="145.28" height="63.06" rx="31.53" transform="translate(204.99 -278.61) rotate(34.15)"/><rect class="cls-36" x="523.19" y="135.2" width="8" height="78" rx="4" transform="translate(188.66 -265.89) rotate(34.15)"/><rect class="cls-36" x="579.47" y="173.37" width="8" height="78" rx="4" transform="matrix(0.83, 0.56, -0.56, 0.83, 219.79, -290.9)"/><path class="cls-16" d="M288.62,249.82a36.5,36.5,0,1,0,60.41,41"/><path class="cls-17" d="M319.59,253.43h0a26,26,0,0,1,26,26v42.71a26,26,0,0,1-26,26h0a0,0,0,0,1,0,0V253.43A0,0,0,0,1,319.59,253.43Z" transform="translate(439.01 736.41) rotate(-145.85)"/><path class="cls-18" d="M307.12,264.28h8.76a8.24,8.24,0,0,1,8.24,8.24V306a8.24,8.24,0,0,1-8.24,8.24h-8.76a0,0,0,0,1,0,0v-50A0,0,0,0,1,307.12,264.28Z" transform="translate(414.46 705.85) rotate(-145.85)"/><path class="cls-16" d="M305.89,191.07h34a0,0,0,0,1,0,0v60a17,17,0,0,1-17,17h0a17,17,0,0,1-17-17v-60A0,0,0,0,1,305.89,191.07Z" transform="translate(461.27 600.8) rotate(-145.85)"/><circle class="cls-37" cx="479.75" cy="306.95" r="99.5" transform="translate(-76.53 429.14) rotate(-45)"/><circle class="cls-38" cx="484.24" cy="300.33" r="99.5" transform="translate(-70.53 430.37) rotate(-45)"/><circle class="cls-39" cx="484.24" cy="300.33" r="87.5" transform="translate(-70.53 430.37) rotate(-45)"/><rect class="cls-35" x="452.43" y="232.11" width="87.5" height="87.5" rx="30.88" transform="translate(31.14 601.5) rotate(-64.07)"/><rect class="cls-40" x="468.18" y="247.86" width="56" height="56" rx="28" transform="translate(-10.64 531.66) rotate(-55.85)"/><rect class="cls-41" x="452.8" y="272.53" width="19.13" height="131.95" rx="9.57" transform="translate(-77.31 531.16) rotate(-55.85)"/><path class="cls-42" d="M438.38,350h0a8.23,8.23,0,0,1-2.2-11.43l13.74-20.25,13.62,9.23L449.8,347.81A8.22,8.22,0,0,1,438.38,350Z"/><path class="cls-42" d="M454.68,361.06h0a8.23,8.23,0,0,1-2.19-11.43l13.67-20.15,13.61,9.24-13.66,20.15A8.23,8.23,0,0,1,454.68,361.06Z"/><path class="cls-43" d="M398.12,315.78a26.82,26.82,0,0,0-1.38-16.72A88.32,88.32,0,0,0,398.12,315.78Z"/><circle class="cls-43" cx="416.49" cy="274.29" r="9.43"/><path class="cls-44" d="M452.87,228.69a29.6,29.6,0,0,0,4.71-11.7,87.05,87.05,0,0,0-37.32,23.63A29.72,29.72,0,0,0,452.87,228.69Z"/><path class="cls-45" d="M422.78,362.63A20.16,20.16,0,0,0,406.22,340,87,87,0,0,0,422.78,362.63Z"/><rect x="475.18" y="254.86" width="42" height="42" rx="21" transform="translate(-10.64 531.66) rotate(-55.85)"/><circle class="cls-35" cx="516.19" cy="265.11" r="5.27"/><path class="cls-19" d="M336.31,319.16A24,24,0,0,1,363,279.24"/></g></g></svg>