<svg xmlns="http://www.w3.org/2000/svg" viewBox="0 0 468 468"><defs><style>.cls-1{fill:#7996c9;}.cls-2{fill:#725db4;}.cls-3{fill:#6647a4;}.cls-4{fill:#bd96fa;}.cls-5{fill:#dab8b9;}.cls-6{fill:#fedbe0;}.cls-7{fill:#ffe6e7;}.cls-8{fill:#8f5d9b;}.cls-9{fill:#4b0f58;}.cls-10{fill:#ce94a2;}.cls-11{fill:#e6b6a5;}.cls-12{fill:#ffe9b3;}.cls-13{fill:#eceeed;}.cls-14{fill:#fde2e7;}.cls-15{fill:#efbda5;opacity:0.45;}.cls-16{fill:#dcc1ac;}.cls-17{fill:#f2c0a8;}.cls-18{fill:#90548f;}.cls-19{fill:#612b6e;}.cls-20{fill:#eac074;}.cls-21{fill:#f3ffe0;}.cls-21,.cls-22{opacity:0.5;}.cls-22{fill:#d7b665;}.cls-23{fill:#c69d8b;}.cls-24{fill:#ffeb87;}.cls-25{fill:#e3b766;}.cls-26{fill:#efdf84;}.cls-27{fill:#dbbe80;}.cls-28{fill:#f9e6cd;}.cls-29{fill:#fde9d5;}.cls-30{fill:#b9a06e;}.cls-31{fill:#fffde3;}.cls-32{fill:#b78050;}.cls-33{fill:#dcaa82;}.cls-34{fill:#deb6cd;}.cls-35{fill:#6f66ae;}.cls-36{fill:#9e74c3;}.cls-37{fill:#5c3f91;}.cls-38{fill:#521da7;}.cls-39{fill:#fff1e6;}.cls-40{fill:#691ab6;}.cls-41{fill:#4acb71;}.cls-42{fill:#fff;}.cls-43{fill:#ff735d;}.cls-44{fill:#7552c0;}.cls-45{fill:#ffe85d;}.cls-46{fill:#198539;}.cls-47{fill:#95e5ad;}.cls-48{fill:#78e599;}.cls-49{fill:#ffc4d4;}.cls-50{fill:#ffdcf7;}</style></defs><title>资源 1</title><g id="图层_2" data-name="图层 2"><g id="rank1"><g id="底层圆盘"><circle class="cls-1" cx="234" cy="234" r="234"/><circle class="cls-2" cx="234" cy="234" r="230"/><circle class="cls-3" cx="234" cy="234" r="225"/><circle class="cls-4" cx="234" cy="234" r="222.5"/></g><g id="图层_5" data-name="图层 5"><ellipse class="cls-5" cx="358.32" cy="284" rx="65.82" ry="48.5"/><ellipse class="cls-6" cx="358.32" cy="284" rx="62" ry="45.68"/><ellipse class="cls-7" cx="358.32" cy="284" rx="57.13" ry="42.09"/><ellipse class="cls-8" cx="358.32" cy="284" rx="45.65" ry="33.64"/><ellipse class="cls-9" cx="347.37" cy="275.93" rx="34.7" ry="25.57"/><ellipse class="cls-5" cx="107.32" cy="284" rx="65.82" ry="48.5"/><ellipse class="cls-6" cx="107.32" cy="284" rx="62" ry="45.68"/><ellipse class="cls-7" cx="107.32" cy="284" rx="57.13" ry="42.09"/><ellipse class="cls-8" cx="107.32" cy="284" rx="45.65" ry="33.64"/><ellipse class="cls-9" cx="118.27" cy="275.93" rx="34.7" ry="25.57"/><path class="cls-10" d="M292.5,278.5h11a0,0,0,0,1,0,0V338a5.5,5.5,0,0,1-5.5,5.5h-5.5a0,0,0,0,1,0,0v-65A0,0,0,0,1,292.5,278.5Z"/><path class="cls-11" d="M303.5,278.5h11a0,0,0,0,1,0,0V338a5.5,5.5,0,0,1-5.5,5.5h-5.5a0,0,0,0,1,0,0v-65A0,0,0,0,1,303.5,278.5Z"/><path class="cls-12" d="M313.5,278.5h11a0,0,0,0,1,0,0V338a5.5,5.5,0,0,1-5.5,5.5h-5.5a0,0,0,0,1,0,0v-65A0,0,0,0,1,313.5,278.5Z"/><path class="cls-13" d="M323.5,277.5h11a0,0,0,0,1,0,0V337a5.5,5.5,0,0,1-5.5,5.5h-5.5a0,0,0,0,1,0,0v-65A0,0,0,0,1,323.5,277.5Z"/><path class="cls-10" d="M162.5,278.5H168a5.5,5.5,0,0,1,5.5,5.5v59.5a0,0,0,0,1,0,0h-11a0,0,0,0,1,0,0v-65A0,0,0,0,1,162.5,278.5Z" transform="translate(336 622) rotate(-180)"/><path class="cls-11" d="M151.5,278.5H157a5.5,5.5,0,0,1,5.5,5.5v59.5a0,0,0,0,1,0,0h-11a0,0,0,0,1,0,0v-65A0,0,0,0,1,151.5,278.5Z" transform="translate(314 622) rotate(-180)"/><path class="cls-12" d="M141.5,278.5H147a5.5,5.5,0,0,1,5.5,5.5v59.5a0,0,0,0,1,0,0h-11a0,0,0,0,1,0,0v-65A0,0,0,0,1,141.5,278.5Z" transform="translate(294 622) rotate(-180)"/><path class="cls-13" d="M131.5,277.5H137a5.5,5.5,0,0,1,5.5,5.5v59.5a0,0,0,0,1,0,0h-11a0,0,0,0,1,0,0v-65A0,0,0,0,1,131.5,277.5Z" transform="translate(274 620) rotate(-180)"/></g><g id="图层_6" data-name="图层 6"><path class="cls-14" d="M231.71,246.22C287.5,142.5,385,76.78,385,76.78s54.5,89.72,25.5,128.72S186.91,320.93,231.71,246.22Z"/><path class="cls-15" d="M385.12,77,310.93,262.51c42.26-15.59,86.85-39.9,99.57-57C438.75,167.5,387.76,81.38,385.12,77Z"/><path class="cls-16" d="M242,243.47c50-93,137.49-152,137.49-152S428.39,172,402.38,207,201.84,310.48,242,243.47Z"/><path class="cls-17" d="M379.28,91.57,310.93,262.51c38.94-14.36,80-36.76,91.74-52.52C428.7,175,381.71,95.63,379.28,91.57Z"/><path class="cls-18" d="M269.7,225.28C306.18,157.47,369.93,114.5,369.93,114.5s35.63,58.66,16.67,84.15S240.42,274.13,269.7,225.28Z"/><path class="cls-19" d="M386.6,198.65c18.35-24.67-14.43-80.4-16.56-84L321.57,235.91C349.18,225.71,378.29,209.83,386.6,198.65Z"/><path class="cls-14" d="M235.83,246.22C180,142.5,82.54,76.78,82.54,76.78S28,166.5,57,205.5,280.63,320.93,235.83,246.22Z"/><path class="cls-15" d="M82.43,77l74.18,185.54c-42.26-15.59-86.85-39.9-99.57-57C28.79,167.5,79.78,81.38,82.43,77Z"/><path class="cls-16" d="M225.52,243.47c-50-93-137.49-152-137.49-152S39.15,172,65.16,207,265.7,310.48,225.52,243.47Z"/><path class="cls-17" d="M88.26,91.57l68.35,170.94c-38.94-14.36-80-36.76-91.74-52.52C38.84,175,85.83,95.63,88.26,91.57Z"/><path class="cls-18" d="M197.84,225.28C161.36,157.47,97.61,114.5,97.61,114.5S62,173.16,80.94,198.65,227.12,274.13,197.84,225.28Z"/><path class="cls-19" d="M80.94,198.65c-18.35-24.67,14.43-80.4,16.56-84L146,235.91C118.36,225.71,89.25,209.83,80.94,198.65Z"/></g><g id="图层_7" data-name="图层 7"><polygon class="cls-20" points="197.5 140.5 145.5 101.5 128.63 40.55 237.5 104.5 237.5 155.5 197.5 140.5"/><polygon class="cls-21" points="183.5 72.78 128.63 40.55 145.5 101.5 183.5 130 183.5 72.78"/><polygon class="cls-22" points="183.5 123.5 183.5 72.78 149.38 52.73 183.5 123.5"/><polygon class="cls-23" points="130.61 47.69 237.5 110.73 237.5 104.5 128.63 40.55 130.61 47.69"/><polygon class="cls-23" points="144.61 98.29 145.5 101.5 197.5 140.5 219.69 148.82 144.61 98.29"/><polygon class="cls-20" points="277.5 140.5 329.5 101.5 346.37 40.55 237.5 104.5 237.5 155.5 277.5 140.5"/><polygon class="cls-21" points="291.5 72.78 346.37 40.55 329.5 101.5 291.5 130 291.5 72.78"/><polygon class="cls-22" points="291.5 123.5 291.5 72.78 325.62 52.73 291.5 123.5"/><polygon class="cls-23" points="344.39 47.69 237.5 110.73 237.5 104.5 346.37 40.55 344.39 47.69"/><polygon class="cls-23" points="330.39 98.29 329.5 101.5 277.5 140.5 255.31 148.82 330.39 98.29"/></g><g id="星星"><g id="星星-2" data-name="星星"><polygon class="cls-24" points="264 76.5 237.58 67.92 266.16 107.25 264 76.5"/><polygon class="cls-25" points="237.59 95.7 237.58 67.92 266.16 107.25 237.59 95.7"/><polygon class="cls-26" points="253.9 45.45 237.58 67.92 283.81 52.9 253.9 45.45"/><polygon class="cls-27" points="264 76.5 237.58 67.92 283.81 52.9 264 76.5"/><polygon class="cls-28" points="221.25 45.45 237.58 67.92 237.57 19.32 221.25 45.45"/><polygon class="cls-29" points="253.9 45.45 237.58 67.92 237.57 19.32 253.9 45.45"/><polygon class="cls-30" points="211.16 76.51 237.58 67.92 191.35 52.91 211.16 76.51"/><polygon class="cls-31" points="221.25 45.45 237.58 67.92 191.35 52.91 221.25 45.45"/><polygon class="cls-32" points="237.59 95.7 237.58 67.92 209.01 107.25 237.59 95.7"/><polygon class="cls-33" points="211.16 76.51 237.58 67.92 209.01 107.25 211.16 76.51"/></g></g><g id="图层_1-2" data-name="图层 1"><circle class="cls-34" cx="234" cy="234" r="120"/><circle class="cls-35" cx="234" cy="234" r="110"/><circle class="cls-36" cx="234" cy="234" r="105"/><circle class="cls-37" cx="234" cy="234" r="95"/><circle class="cls-4" cx="234" cy="234" r="90"/><circle class="cls-38" cx="99" cy="345.5" r="6"/><path class="cls-38" d="M53.62,339.5a108.56,108.56,0,0,1,14.88,55,108.56,108.56,0,0,1-14.88,55H99.27v-110Z"/><path class="cls-39" d="M60.75,434.93c-1,2.38-2,4.73-3.1,7H102v-7Z"/><path class="cls-39" d="M58.84,349.57q1.56,3.45,2.88,7h38.57v-7Z"/><circle class="cls-38" cx="368.62" cy="345.5" r="6"/><path class="cls-38" d="M414,339.5a109.09,109.09,0,0,0,0,110H368.35v-110Z"/><path class="cls-39" d="M406.87,434.93c.95,2.38,2,4.73,3.1,7H365.59v-7Z"/><path class="cls-39" d="M408.78,349.57q-1.56,3.45-2.88,7H367.33v-7Z"/><rect class="cls-40" x="99" y="345.5" width="270" height="110"/><rect class="cls-39" x="99" y="354.49" width="270" height="7.03"/><rect class="cls-39" x="99" y="440.48" width="270" height="7.03"/><circle class="cls-41" cx="234" cy="234" r="85"/><rect class="cls-42" x="187.76" y="165.32" width="85" height="85" rx="26.1" transform="translate(-27.35 35.06) rotate(-8.22)"/><rect class="cls-43" x="203.06" y="180.62" width="54.4" height="54.4" rx="27.2"/><rect class="cls-44" x="173.14" y="267.32" width="128.18" height="18.59" rx="9.29"/><path class="cls-45" d="M224.21,298.94h0a8,8,0,0,1-8-8V267.17h16V291A8,8,0,0,1,224.21,298.94Z"/><path class="cls-45" d="M243.35,298.94h0a8,8,0,0,1-8-8V267.3h16V291A8,8,0,0,1,243.35,298.94Z"/><path class="cls-46" d="M173.19,293.38A26.09,26.09,0,0,0,163,280.68,85.16,85.16,0,0,0,173.19,293.38Z"/><circle class="cls-46" cx="165.33" cy="250" r="9.16"/><path class="cls-47" d="M169.72,193.5a28.68,28.68,0,0,0-2.6-12A84.59,84.59,0,0,0,150,220.88,28.87,28.87,0,0,0,169.72,193.5Z"/><path class="cls-48" d="M218.56,317.6a19.6,19.6,0,0,0-25.68-9.2A84.23,84.23,0,0,0,218.56,317.6Z"/><rect x="209.86" y="187.42" width="40.8" height="40.8" rx="20.4"/><circle class="cls-42" cx="240.48" cy="188.26" r="5.12"/><rect class="cls-49" x="234" y="371.52" width="15.51" height="57.97"/><path class="cls-49" d="M234,365.8v5.72h15.55a13.41,13.41,0,0,1,10.17-4.66h.08V365.8Z"/><path class="cls-49" d="M234,435.2v-5.72h15.55a13.41,13.41,0,0,0,10.17,4.66h.08v1.07Z"/><rect class="cls-50" x="218.49" y="371.52" width="15.51" height="57.97"/><path class="cls-50" d="M234,365.8v5.72H218.45a13.41,13.41,0,0,0-10.17-4.66h-.08V365.8Z"/><path class="cls-50" d="M234,435.2v-5.72H218.45a13.41,13.41,0,0,1-10.17,4.66h-.08v1.07Z"/></g></g></g></svg>