<svg xmlns="http://www.w3.org/2000/svg" viewBox="0 0 468 468"><defs><style>.cls-1{fill:#7996c9;}.cls-2{fill:#725db4;}.cls-3{fill:#6647a4;}.cls-4{fill:#9293e8;}.cls-5{fill:#ffeb87;}.cls-6{fill:#e3b766;}.cls-7{fill:#efdf84;}.cls-8{fill:#dbbe80;}.cls-9{fill:#f9e6cd;}.cls-10{fill:#fde9d5;}.cls-11{fill:#b9a06e;}.cls-12{fill:#fffde3;}.cls-13{fill:#b78050;}.cls-14{fill:#dcaa82;}.cls-15{fill:#efd7ff;}.cls-16{fill:#a084cb;}.cls-17{fill:#7967a7;}.cls-18{fill:#6f6fb0;}.cls-19{fill:#a05dee;}.cls-20{fill:#4e2d9f;}.cls-21{fill:#9baae2;}.cls-22{fill:#9276bd;}.cls-23{fill:#4e3075;}.cls-24{fill:#a79bd3;}.cls-25{fill:#9864a2;}.cls-26{fill:#8f9dbc;}.cls-27{fill:#af9eda;}.cls-28{fill:#e3c4ff;}.cls-29{fill:#deb6cd;}.cls-30{fill:#6f66ae;}.cls-31{fill:#9e74c3;}.cls-32{fill:#5c3f91;}.cls-33{fill:#bd96fa;}.cls-34{fill:#362d8a;}.cls-35{fill:#fff1e6;}.cls-36{fill:#5a4f9f;}.cls-37{fill:#4acb71;}.cls-38{fill:#fff;}.cls-39{fill:#ff735d;}.cls-40{fill:#7552c0;}.cls-41{fill:#ffe85d;}.cls-42{fill:#198539;}.cls-43{fill:#95e5ad;}.cls-44{fill:#78e599;}.cls-45{fill:#ffc4d4;}.cls-46{fill:#ffdcf7;}</style></defs><title>资源 4</title><g id="图层_2" data-name="图层 2"><g id="rank2"><circle class="cls-1" cx="234" cy="234" r="234"/><circle class="cls-2" cx="234" cy="234" r="230"/><circle class="cls-3" cx="234" cy="234" r="225"/><circle class="cls-4" cx="234" cy="234" r="222.5"/><polygon class="cls-5" points="212.65 76.54 184.88 76.56 224.23 105.1 212.65 76.54"/><polygon class="cls-6" points="193.48 102.97 184.88 76.56 224.23 105.1 193.48 102.97"/><polygon class="cls-7" points="193.43 50.14 184.88 76.56 224.17 47.96 193.43 50.14"/><polygon class="cls-8" points="212.65 76.54 184.88 76.56 224.17 47.96 212.65 76.54"/><polygon class="cls-9" points="162.39 60.26 184.88 76.56 169.81 30.35 162.39 60.26"/><polygon class="cls-10" points="193.43 50.14 184.88 76.56 169.81 30.35 193.43 50.14"/><polygon class="cls-11" points="162.42 92.91 184.88 76.56 136.27 76.61 162.42 92.91"/><polygon class="cls-12" points="162.39 60.26 184.88 76.56 136.27 76.61 162.39 60.26"/><polygon class="cls-13" points="193.48 102.97 184.88 76.56 169.9 122.81 193.48 102.97"/><polygon class="cls-14" points="162.42 92.91 184.88 76.56 169.9 122.81 162.42 92.91"/><g id="图层_12" data-name="图层 12"><polygon class="cls-15" points="370.5 205.5 349.5 393.5 262.5 307.5 370.5 205.5"/><polygon class="cls-16" points="363.5 216.5 345.03 381.87 268.5 306.22 363.5 216.5"/><polygon class="cls-17" points="360.5 216.5 342.61 376.65 268.5 303.39 360.5 216.5"/><polygon class="cls-18" points="356.39 216.5 339.3 369.5 268.5 299.51 356.39 216.5"/><polygon class="cls-19" points="342.5 216.5 328.11 345.31 268.5 286.39 342.5 216.5"/><polygon class="cls-20" points="339.5 216.5 325.69 340.09 268.5 283.56 339.5 216.5"/><polygon class="cls-15" points="96.5 195.5 117.5 383.5 204.5 297.5 96.5 195.5"/><polygon class="cls-16" points="103.5 206.5 121.97 371.87 198.5 296.22 103.5 206.5"/><polygon class="cls-17" points="106.5 206.5 124.39 366.65 198.5 293.39 106.5 206.5"/><polygon class="cls-18" points="110.61 206.5 127.7 359.5 198.5 289.51 110.61 206.5"/><polygon class="cls-19" points="124.5 206.5 138.89 335.31 198.5 276.39 124.5 206.5"/><polygon class="cls-20" points="127.5 206.5 141.31 330.09 198.5 273.56 127.5 206.5"/></g><g id="图层_13" data-name="图层 13"><path class="cls-21" d="M331.5,213.5c65,7,97,72,97,72s-56.78,38.44-118.39,16.22S266.5,206.5,331.5,213.5Z"/><path class="cls-22" d="M327.71,219.59C388.55,226.14,418.5,287,418.5,287s-53.15,36-110.82,15.18S266.86,213,327.71,219.59Z"/><path class="cls-23" d="M325.81,222.63c58.76,6.33,87.69,65.09,87.69,65.09s-51.33,34.76-107,14.67S267.05,216.3,325.81,222.63Z"/><path class="cls-24" d="M323.07,225.6c49.61,8.4,71.17,59.83,71.17,59.83s-45.41,26.89-91.71,7S273.45,217.2,323.07,225.6Z"/><path class="cls-25" d="M322.38,230.2c44.95,7.61,64.5,54.21,64.5,54.21s-41.15,24.38-83.11,6.31S277.42,222.59,322.38,230.2Z"/><path class="cls-21" d="M136.19,213.5c-65,7-97,72-97,72S96,323.94,157.58,301.72,201.19,206.5,136.19,213.5Z"/><path class="cls-22" d="M140,219.59C79.14,226.14,49.19,287,49.19,287S102.34,323,160,302.16,200.83,213,140,219.59Z"/><path class="cls-23" d="M141.88,222.63C83.12,229,54.19,287.72,54.19,287.72s51.33,34.76,107,14.67S200.65,216.3,141.88,222.63Z"/><path class="cls-24" d="M144.63,225.6C95,234,73.45,285.43,73.45,285.43s45.41,26.89,91.71,7S194.24,217.2,144.63,225.6Z"/><path class="cls-25" d="M145.32,230.2c-45,7.61-64.5,54.21-64.5,54.21s41.15,24.38,83.1,6.31S190.27,222.59,145.32,230.2Z"/></g><g id="图层_11" data-name="图层 11"><path class="cls-26" d="M232.5,213c123-67,142-146,142-146s54,112,18,161-118,76-118,76S164.81,249.87,232.5,213Z"/><path class="cls-27" d="M239.94,214.38C355.67,151.33,373.55,77,373.55,77s50.81,105.38,16.94,151.49-111,71.51-111,71.51S176.25,249.07,239.94,214.38Z"/><path class="cls-28" d="M288.5,197.5c64-48,83-94,83-94s24,67,10,101-58,73-58,73"/><path class="cls-20" d="M371.5,103.5s-14.76,35.73-62.08,77.07L333.5,228.5s34.27-27.81,38-125Z"/><path class="cls-26" d="M233.82,213c-123-67-142-146-142-146s-54,112-18,161,118,76,118,76S301.5,249.87,233.82,213Z"/><path class="cls-27" d="M226.38,214.38C110.64,151.33,92.76,77,92.76,77S42,182.38,75.83,228.49s111,71.51,111,71.51S290.07,249.07,226.38,214.38Z"/><path class="cls-28" d="M177.82,197.5c-64-48-83-94-83-94s-24,67-10,101,58,73,58,73"/><path class="cls-20" d="M94.82,103.5s14.76,35.73,62.07,77.07L132.82,228.5s-34.28-27.81-38-125Z"/></g><circle class="cls-29" cx="234" cy="234" r="120"/><circle class="cls-30" cx="234" cy="234" r="110"/><circle class="cls-31" cx="234" cy="234" r="105"/><circle class="cls-32" cx="234" cy="234" r="95"/><circle class="cls-33" cx="234" cy="234" r="90"/><circle class="cls-34" cx="99" cy="345.5" r="6"/><path class="cls-34" d="M53.62,339.5a108.56,108.56,0,0,1,14.88,55,108.56,108.56,0,0,1-14.88,55H99.27v-110Z"/><path class="cls-35" d="M60.75,434.93c-1,2.38-2,4.73-3.1,7H102v-7Z"/><path class="cls-35" d="M58.84,349.57q1.56,3.45,2.88,7h38.57v-7Z"/><circle class="cls-34" cx="368.62" cy="345.5" r="6"/><path class="cls-34" d="M414,339.5a109.09,109.09,0,0,0,0,110H368.35v-110Z"/><path class="cls-35" d="M406.87,434.93c.95,2.38,2,4.73,3.1,7H365.59v-7Z"/><path class="cls-35" d="M408.78,349.57q-1.56,3.45-2.88,7H367.33v-7Z"/><rect class="cls-36" x="99" y="345.5" width="270" height="110"/><rect class="cls-35" x="99" y="354.49" width="270" height="7.03"/><rect class="cls-35" x="99" y="440.48" width="270" height="7.03"/><circle class="cls-37" cx="234" cy="234" r="85"/><rect class="cls-38" x="187.76" y="165.32" width="85" height="85" rx="26.1" transform="translate(-27.35 35.06) rotate(-8.22)"/><rect class="cls-39" x="203.06" y="180.62" width="54.4" height="54.4" rx="27.2"/><rect class="cls-40" x="173.14" y="267.32" width="128.18" height="18.59" rx="9.29"/><path class="cls-41" d="M224.21,298.94h0a8,8,0,0,1-8-8V267.17h16V291A8,8,0,0,1,224.21,298.94Z"/><path class="cls-41" d="M243.35,298.94h0a8,8,0,0,1-8-8V267.3h16V291A8,8,0,0,1,243.35,298.94Z"/><path class="cls-42" d="M173.19,293.38A26.09,26.09,0,0,0,163,280.68,85.16,85.16,0,0,0,173.19,293.38Z"/><circle class="cls-42" cx="165.33" cy="250" r="9.16"/><path class="cls-43" d="M169.72,193.5a28.68,28.68,0,0,0-2.6-12A84.59,84.59,0,0,0,150,220.88,28.87,28.87,0,0,0,169.72,193.5Z"/><path class="cls-44" d="M218.56,317.6a19.6,19.6,0,0,0-25.68-9.2A84.23,84.23,0,0,0,218.56,317.6Z"/><rect x="209.86" y="187.42" width="40.8" height="40.8" rx="20.4"/><circle class="cls-38" cx="240.48" cy="188.26" r="5.12"/><rect class="cls-45" x="205.31" y="371.52" width="15.51" height="57.97"/><path class="cls-45" d="M205.31,365.8v5.72h15.55A13.41,13.41,0,0,1,231,366.86h.08V365.8Z"/><path class="cls-45" d="M205.31,435.2v-5.72h15.55A13.41,13.41,0,0,0,231,434.14h.08v1.07Z"/><rect class="cls-46" x="189.8" y="371.52" width="15.51" height="57.97"/><path class="cls-46" d="M205.31,365.8v5.72H189.76a13.41,13.41,0,0,0-10.17-4.66h-.08V365.8Z"/><path class="cls-46" d="M205.31,435.2v-5.72H189.76a13.41,13.41,0,0,1-10.17,4.66h-.08v1.07Z"/><rect class="cls-45" x="262.31" y="371.52" width="15.51" height="57.97"/><path class="cls-45" d="M262.31,365.8v5.72h15.55A13.41,13.41,0,0,1,288,366.86h.08V365.8Z"/><path class="cls-45" d="M262.31,435.2v-5.72h15.55A13.41,13.41,0,0,0,288,434.14h.08v1.07Z"/><rect class="cls-46" x="246.8" y="371.52" width="15.51" height="57.97"/><path class="cls-46" d="M262.31,365.8v5.72H246.76a13.41,13.41,0,0,0-10.17-4.66h-.08V365.8Z"/><path class="cls-46" d="M262.31,435.2v-5.72H246.76a13.41,13.41,0,0,1-10.17,4.66h-.08v1.07Z"/><polygon class="cls-5" points="262.97 77.36 290.71 78.67 250.09 105.36 262.97 77.36"/><polygon class="cls-6" points="280.9 104.65 290.71 78.67 250.09 105.36 280.9 104.65"/><polygon class="cls-7" points="283.38 51.88 290.71 78.67 252.78 48.28 283.38 51.88"/><polygon class="cls-8" points="262.97 77.36 290.71 78.67 252.78 48.28 262.97 77.36"/><polygon class="cls-9" points="313.93 63.42 290.71 78.67 307.89 33.2 313.93 63.42"/><polygon class="cls-10" points="283.38 51.88 290.71 78.67 307.89 33.2 283.38 51.88"/><polygon class="cls-11" points="312.39 96.03 290.71 78.67 339.27 80.95 312.39 96.03"/><polygon class="cls-12" points="313.93 63.42 290.71 78.67 339.27 80.95 313.93 63.42"/><polygon class="cls-13" points="280.9 104.65 290.71 78.67 303.54 125.55 280.9 104.65"/><polygon class="cls-14" points="312.39 96.03 290.71 78.67 303.54 125.55 312.39 96.03"/></g></g></svg>