<svg xmlns="http://www.w3.org/2000/svg" viewBox="0 0 468 468"><defs><style>.cls-1{fill:#7996c9;}.cls-2{fill:#725db4;}.cls-3{fill:#6647a4;}.cls-4{fill:#583d97;}.cls-5{fill:none;stroke:#d4dfff;stroke-miterlimit:10;stroke-width:5px;}.cls-6{fill:#bbc0d7;}.cls-7{fill:#7b70b1;}.cls-8{fill:#ebd2e5;}.cls-9{fill:#f4f6ba;}.cls-10{fill:#a6a6d1;}.cls-11{fill:#604183;}.cls-12{fill:#834fa9;}.cls-13{fill:#ffeb87;}.cls-14{fill:#e3b766;}.cls-15{fill:#efdf84;}.cls-16{fill:#dbbe80;}.cls-17{fill:#f9e6cd;}.cls-18{fill:#fde9d5;}.cls-19{fill:#b9a06e;}.cls-20{fill:#fffde3;}.cls-21{fill:#b78050;}.cls-22{fill:#dcaa82;}.cls-23{fill:#deb6cd;}.cls-24{fill:#6f66ae;}.cls-25{fill:#9e74c3;}.cls-26{fill:#5c3f91;}.cls-27{fill:#bd96fa;}.cls-28{fill:#5a35c6;}.cls-29{fill:#fff1e6;}.cls-30{fill:#4acb71;}.cls-31{fill:#fff;}.cls-32{fill:#ff735d;}.cls-33{fill:#7552c0;}.cls-34{fill:#ffe85d;}.cls-35{fill:#198539;}.cls-36{fill:#95e5ad;}.cls-37{fill:#78e599;}.cls-38{fill:#8261eb;}.cls-39{fill:#ffc4d4;}.cls-40{fill:#ffdcf7;}</style></defs><title>资源 5</title><g id="图层_2" data-name="图层 2"><g id="rank3"><circle class="cls-1" cx="234" cy="234" r="234"/><circle class="cls-2" cx="234" cy="234" r="230"/><circle class="cls-3" cx="234" cy="234" r="225"/><circle class="cls-4" cx="234" cy="234" r="222.5"/><g id="图层_15" data-name="图层 15"><g id="图层_16" data-name="图层 16"><path class="cls-5" d="M323.5,369.5c11.95-12,45.95-49.25,55-109a197.7,197.7,0,0,0-18-116"/><path class="cls-6" d="M350.13,334.5l53.33-.88s-1.9-15.56-20.77-15.25S350.13,334.5,350.13,334.5Z"/><path class="cls-7" d="M350.13,334.5l53.33-.88s-1.38,15.61-20.25,15.93S350.13,334.5,350.13,334.5Z"/><path class="cls-6" d="M366.26,309l59.27-8.83s-4.4-17-25.38-13.93S366.26,309,366.26,309Z"/><path class="cls-7" d="M366.26,309l59.27-8.83s.76,17.6-20.21,20.72S366.26,309,366.26,309Z"/><path class="cls-6" d="M373.79,283.66l58.79-27.72s-9.91-16.33-30.72-6.52S373.79,283.66,373.79,283.66Z"/><path class="cls-7" d="M373.79,283.66l58.79-27.72s6.29,18-14.51,27.85S373.79,283.66,373.79,283.66Z"/><path class="cls-6" d="M380.93,247.38l53.38-37.08s-12.48-14.46-31.37-1.34S380.93,247.38,380.93,247.38Z"/><path class="cls-7" d="M380.93,247.38l53.38-37.08s9.2,16.75-9.69,29.87S380.93,247.38,380.93,247.38Z"/><path class="cls-6" d="M380.21,209.19l53.38-37.08s-12.48-14.47-31.37-1.34S380.21,209.19,380.21,209.19Z"/><path class="cls-7" d="M380.21,209.19l53.38-37.08s9.2,16.74-9.69,29.87S380.21,209.19,380.21,209.19Z"/><path class="cls-6" d="M376.18,183.07l28.43-58.45s-18-6.51-28,14.17S376.18,183.07,376.18,183.07Z"/><path class="cls-7" d="M376.18,183.07l28.43-58.45s16.21,10.1,6.15,30.79S376.18,183.07,376.18,183.07Z"/><path class="cls-6" d="M365.05,150l21.36-43.91s-13.5-4.9-21.05,10.64S365.05,150,365.05,150Z"/><path class="cls-7" d="M365.05,150l21.36-43.91s12.17,7.59,4.62,23.13S365.05,150,365.05,150Z"/><path class="cls-6" d="M361.86,148l-16.81-40.32s-11.27,6.15-5.32,20.42S361.86,148,361.86,148Z"/><path class="cls-7" d="M361.86,148l-16.81-40.32s12.3-3.67,18.25,10.59S361.86,148,361.86,148Z"/><path class="cls-5" d="M149.55,369.5c-12-12-46-49.25-55-109a197.7,197.7,0,0,1,18-116"/><path class="cls-6" d="M122.92,334.5l-53.33-.88s1.9-15.56,20.77-15.25S122.92,334.5,122.92,334.5Z"/><path class="cls-7" d="M122.92,334.5l-53.33-.88S71,349.23,89.84,349.55,122.92,334.5,122.92,334.5Z"/><path class="cls-6" d="M106.79,309l-59.27-8.83s4.4-17,25.38-13.93S106.79,309,106.79,309Z"/><path class="cls-7" d="M106.79,309l-59.27-8.83s-.76,17.6,20.21,20.72S106.79,309,106.79,309Z"/><path class="cls-6" d="M99.26,283.66,40.47,255.94s9.91-16.33,30.72-6.52S99.26,283.66,99.26,283.66Z"/><path class="cls-7" d="M99.26,283.66,40.47,255.94S34.18,274,55,283.79,99.26,283.66,99.26,283.66Z"/><path class="cls-6" d="M92.12,247.38,38.74,210.3S51.22,195.84,70.11,209,92.12,247.38,92.12,247.38Z"/><path class="cls-7" d="M92.12,247.38,38.74,210.3s-9.2,16.75,9.69,29.87S92.12,247.38,92.12,247.38Z"/><path class="cls-6" d="M92.84,209.19,39.46,172.11s12.48-14.47,31.37-1.34S92.84,209.19,92.84,209.19Z"/><path class="cls-7" d="M92.84,209.19,39.46,172.11s-9.2,16.74,9.69,29.87S92.84,209.19,92.84,209.19Z"/><path class="cls-6" d="M96.87,183.07,68.44,124.62s18-6.51,28,14.17S96.87,183.07,96.87,183.07Z"/><path class="cls-7" d="M96.87,183.07,68.44,124.62s-16.21,10.1-6.15,30.79S96.87,183.07,96.87,183.07Z"/><path class="cls-6" d="M108,150,86.64,106.12s13.5-4.9,21,10.64S108,150,108,150Z"/><path class="cls-7" d="M108,150,86.64,106.12S74.47,113.71,82,129.25,108,150,108,150Z"/><path class="cls-6" d="M111.19,148,128,107.65s11.27,6.15,5.32,20.42S111.19,148,111.19,148Z"/><path class="cls-7" d="M111.19,148,128,107.65s-12.3-3.67-18.25,10.59S111.19,148,111.19,148Z"/></g><polygon class="cls-8" points="278.5 171.5 428.5 148.5 313.6 292.61 278.5 171.5"/><polygon class="cls-9" points="278.5 176.15 421.5 154.22 311.97 291.61 278.5 176.15"/><polygon class="cls-10" points="278.5 183.03 410.5 162.79 309.39 289.61 278.5 183.03"/><polygon class="cls-11" points="289.5 187.49 387.5 172.46 312.44 266.61 289.5 187.49"/><polygon class="cls-12" points="289.5 189.2 373.5 174.5 309.16 266.61 289.5 189.2"/><polygon class="cls-8" points="344.2 237.66 363.88 388.13 222.34 270.07 344.2 237.66"/><polygon class="cls-9" points="339.55 237.56 358.31 381.01 223.38 268.46 339.55 237.56"/><polygon class="cls-10" points="332.67 237.4 349.99 369.82 225.44 265.93 332.67 237.4"/><polygon class="cls-11" points="327.98 248.3 340.83 346.61 248.37 269.48 327.98 248.3"/><polygon class="cls-12" points="326.26 248.26 339.1 332.57 248.44 266.2 326.26 248.26"/><polygon class="cls-8" points="189.34 171.5 39.34 148.5 154.24 292.61 189.34 171.5"/><polygon class="cls-9" points="189.34 176.15 46.34 154.22 155.88 291.61 189.34 176.15"/><polygon class="cls-10" points="189.34 183.03 57.34 162.79 158.45 289.61 189.34 183.03"/><polygon class="cls-11" points="178.34 187.49 80.34 172.46 155.41 266.61 178.34 187.49"/><polygon class="cls-12" points="178.34 189.2 94.34 174.5 158.69 266.61 178.34 189.2"/><polygon class="cls-8" points="123.64 237.66 103.97 388.13 245.5 270.07 123.64 237.66"/><polygon class="cls-9" points="128.29 237.56 109.54 381.01 244.46 268.46 128.29 237.56"/><polygon class="cls-10" points="135.17 237.4 117.86 369.82 242.41 265.93 135.17 237.4"/><polygon class="cls-11" points="139.87 248.3 127.01 346.61 219.48 269.48 139.87 248.3"/><polygon class="cls-12" points="141.58 248.26 128.74 332.57 219.41 266.2 141.58 248.26"/></g><polygon class="cls-13" points="175.02 87.1 148.03 93.67 193 112.13 175.02 87.1"/><polygon class="cls-14" points="162.63 117.31 148.03 93.67 193 112.13 162.63 117.31"/><polygon class="cls-15" points="150.12 65.97 148.03 93.67 179.48 56.61 150.12 65.97"/><polygon class="cls-16" points="175.02 87.1 148.03 93.67 179.48 56.61 175.02 87.1"/><polygon class="cls-17" points="122.34 83.13 148.03 93.67 122.5 52.31 122.34 83.13"/><polygon class="cls-18" points="150.12 65.97 148.03 93.67 122.5 52.31 150.12 65.97"/><polygon class="cls-19" points="130.07 114.85 148.03 93.67 100.81 105.18 130.07 114.85"/><polygon class="cls-20" points="122.34 83.13 148.03 93.67 100.81 105.18 122.34 83.13"/><polygon class="cls-21" points="162.63 117.31 148.03 93.67 144.38 142.14 162.63 117.31"/><polygon class="cls-22" points="130.07 114.85 148.03 93.67 144.38 142.14 130.07 114.85"/><circle class="cls-23" cx="234" cy="234" r="120"/><circle class="cls-24" cx="234" cy="234" r="110"/><circle class="cls-25" cx="234" cy="234" r="105"/><circle class="cls-26" cx="234" cy="234" r="95"/><circle class="cls-27" cx="234" cy="234" r="90"/><circle class="cls-28" cx="99" cy="345.5" r="6"/><path class="cls-28" d="M53.62,339.5a108.56,108.56,0,0,1,14.88,55,108.56,108.56,0,0,1-14.88,55H99.27v-110Z"/><path class="cls-29" d="M60.75,434.93c-1,2.38-2,4.73-3.1,7H102v-7Z"/><path class="cls-29" d="M58.84,349.57q1.56,3.45,2.88,7h38.57v-7Z"/><circle class="cls-28" cx="368.62" cy="345.5" r="6"/><path class="cls-28" d="M414,339.5a109.09,109.09,0,0,0,0,110H368.35v-110Z"/><circle class="cls-30" cx="234" cy="234" r="85"/><rect class="cls-31" x="187.76" y="165.32" width="85" height="85" rx="26.1" transform="translate(-27.35 35.06) rotate(-8.22)"/><rect class="cls-32" x="203.06" y="180.62" width="54.4" height="54.4" rx="27.2"/><rect class="cls-33" x="173.14" y="267.32" width="128.18" height="18.59" rx="9.29"/><path class="cls-34" d="M224.21,298.94h0a8,8,0,0,1-8-8V267.17h16V291A8,8,0,0,1,224.21,298.94Z"/><path class="cls-34" d="M243.35,298.94h0a8,8,0,0,1-8-8V267.3h16V291A8,8,0,0,1,243.35,298.94Z"/><path class="cls-35" d="M173.19,293.38A26.09,26.09,0,0,0,163,280.68,85.16,85.16,0,0,0,173.19,293.38Z"/><circle class="cls-35" cx="165.33" cy="250" r="9.16"/><path class="cls-36" d="M169.72,193.5a28.68,28.68,0,0,0-2.6-12A84.59,84.59,0,0,0,150,220.88,28.87,28.87,0,0,0,169.72,193.5Z"/><path class="cls-37" d="M218.56,317.6a19.6,19.6,0,0,0-25.68-9.2A84.23,84.23,0,0,0,218.56,317.6Z"/><rect x="209.86" y="187.42" width="40.8" height="40.8" rx="20.4"/><circle class="cls-31" cx="240.48" cy="188.26" r="5.12"/><polygon class="cls-13" points="299.39 89.39 326.11 96.97 280.49 113.73 299.39 89.39"/><polygon class="cls-14" points="310.65 120.04 326.11 96.97 280.49 113.73 310.65 120.04"/><polygon class="cls-15" points="325.06 69.21 326.11 96.97 296.07 58.75 325.06 69.21"/><polygon class="cls-16" points="299.39 89.39 326.11 96.97 296.07 58.75 299.39 89.39"/><polygon class="cls-17" points="352.18 87.39 326.11 96.97 353.17 56.58 352.18 87.39"/><polygon class="cls-18" points="325.06 69.21 326.11 96.97 353.17 56.58 325.06 69.21"/><polygon class="cls-19" points="343.28 118.8 326.11 96.97 372.88 110.22 343.28 118.8"/><polygon class="cls-20" points="352.18 87.39 326.11 96.97 372.88 110.22 352.18 87.39"/><polygon class="cls-21" points="310.65 120.04 326.11 96.97 327.96 145.54 310.65 120.04"/><polygon class="cls-22" points="343.28 118.8 326.11 96.97 327.96 145.54 343.28 118.8"/><path class="cls-29" d="M406.87,434.93c.95,2.38,2,4.73,3.1,7H365.59v-7Z"/><path class="cls-29" d="M408.78,349.57q-1.56,3.45-2.88,7H367.33v-7Z"/><rect class="cls-38" x="99" y="345.5" width="270" height="110"/><rect class="cls-29" x="99" y="354.49" width="270" height="7.03"/><rect class="cls-29" x="99" y="440.48" width="270" height="7.03"/><polygon class="cls-13" points="211.56 77.24 238.23 69.48 208.46 107.9 211.56 77.24"/><polygon class="cls-14" points="237.37 97.24 238.23 69.48 208.46 107.9 237.37 97.24"/><polygon class="cls-15" points="222.61 46.51 238.23 69.48 192.49 53.03 222.61 46.51"/><polygon class="cls-16" points="211.56 77.24 238.23 69.48 192.49 53.03 211.56 77.24"/><polygon class="cls-17" points="255.25 47.52 238.23 69.48 239.74 20.89 255.25 47.52"/><polygon class="cls-20" points="222.61 46.51 238.23 69.48 239.74 20.89 222.61 46.51"/><polygon class="cls-16" points="264.37 78.88 238.23 69.48 284.91 55.9 264.37 78.88"/><polygon class="cls-15" points="255.25 47.52 238.23 69.48 284.91 55.9 255.25 47.52"/><polygon class="cls-14" points="237.37 97.24 238.23 69.48 265.57 109.67 237.37 97.24"/><polygon class="cls-13" points="264.37 78.88 238.23 69.48 265.57 109.67 264.37 78.88"/><rect class="cls-39" x="177.5" y="371.52" width="15.51" height="57.97"/><path class="cls-39" d="M177.5,365.8v5.72h15.55a13.41,13.41,0,0,1,10.17-4.66h.08V365.8Z"/><path class="cls-39" d="M177.5,435.2v-5.72h15.55a13.41,13.41,0,0,0,10.17,4.66h.08v1.07Z"/><rect class="cls-40" x="161.99" y="371.52" width="15.51" height="57.97"/><path class="cls-40" d="M177.5,365.8v5.72H162a13.41,13.41,0,0,0-10.17-4.66h-.08V365.8Z"/><path class="cls-40" d="M177.5,435.2v-5.72H162a13.41,13.41,0,0,1-10.17,4.66h-.08v1.07Z"/><rect class="cls-39" x="234" y="371.52" width="15.51" height="57.97"/><path class="cls-39" d="M234,365.8v5.72h15.55a13.41,13.41,0,0,1,10.17-4.66h.08V365.8Z"/><path class="cls-39" d="M234,435.2v-5.72h15.55a13.41,13.41,0,0,0,10.17,4.66h.08v1.07Z"/><rect class="cls-40" x="218.49" y="371.52" width="15.51" height="57.97"/><path class="cls-40" d="M234,365.8v5.72H218.45a13.41,13.41,0,0,0-10.17-4.66h-.08V365.8Z"/><path class="cls-40" d="M234,435.2v-5.72H218.45a13.41,13.41,0,0,1-10.17,4.66h-.08v1.07Z"/><rect class="cls-39" x="290.5" y="371.52" width="15.51" height="57.97"/><path class="cls-39" d="M290.5,365.8v5.72h15.55a13.41,13.41,0,0,1,10.17-4.66h.08V365.8Z"/><path class="cls-39" d="M290.5,435.2v-5.72h15.55a13.41,13.41,0,0,0,10.17,4.66h.08v1.07Z"/><rect class="cls-40" x="274.99" y="371.52" width="15.51" height="57.97"/><path class="cls-40" d="M290.5,365.8v5.72H275a13.41,13.41,0,0,0-10.17-4.66h-.08V365.8Z"/><path class="cls-40" d="M290.5,435.2v-5.72H275a13.41,13.41,0,0,1-10.17,4.66h-.08v1.07Z"/></g></g></svg>