<svg xmlns="http://www.w3.org/2000/svg" viewBox="0 0 468 484"><defs><style>.cls-1{fill:#918344;}.cls-2{fill:#ebe59b;}.cls-3{fill:#fec46e;}.cls-4{fill:#bd1813;}.cls-5{fill:#ffffb8;}.cls-6{fill:#e4693e;}.cls-7{fill:#a82a12;}.cls-8{fill:#f18769;}.cls-9{fill:#9baae2;}.cls-10{fill:#9276bd;}.cls-11{fill:#e1325d;}.cls-12{fill:#e73b34;}.cls-13{fill:#8f9dbc;}.cls-14{fill:#ffbc8b;}.cls-15{fill:#eb5152;}.cls-16{fill:#8b2c1c;}.cls-17{fill:#d97330;}.cls-18{fill:#fccd6d;}.cls-19{fill:#fec596;}.cls-20{fill:#962b11;}.cls-21{fill:#dd5d47;}.cls-22{fill:#ffad5f;}.cls-23{fill:#ffffcf;}.cls-24{fill:#4acb71;}.cls-25{fill:#fff;}.cls-26{fill:#ff735d;}.cls-27{fill:#95e5ad;}.cls-28{fill:#198539;}.cls-29{fill:#fff3bf;}.cls-30{fill:#ffb96c;}.cls-31{fill:#e47745;}.cls-32{fill:#919dc8;}.cls-33{fill:#ffea98;}.cls-34{fill:#ef6421;}.cls-35{fill:#d73f39;}.cls-36{fill:#e99a5a;}.cls-37{fill:#feac75;}.cls-38{fill:#f68d56;}.cls-39{fill:#e6aa53;}.cls-40{fill:#dee186;}.cls-41{fill:#b6781b;}.cls-42{fill:#f4c98c;}.cls-43{fill:#e6b65c;}.cls-44{fill:#ffffe4;}.cls-45{fill:#e2974b;}.cls-46{fill:#faafb1;}.cls-47{fill:#4b0000;}.cls-48{fill:#ffc9d7;}.cls-49{fill:#ab4f3b;}.cls-50{fill:#ffe9a5;}.cls-51{fill:#f3aa7e;}.cls-52{fill:#ffd7a0;}.cls-53{fill:#ffeb87;}.cls-54{fill:#e3b766;}.cls-55{fill:#efdf84;}.cls-56{fill:#dbbe80;}.cls-57{fill:#f9f0d8;}.cls-58{fill:#fde9d5;}.cls-59{fill:#b9a06e;}.cls-60{fill:#fffde3;}.cls-61{fill:#ddaa59;}</style></defs><title>资源 6</title><g id="图层_2" data-name="图层 2"><g id="rank4"><circle class="cls-1" cx="234" cy="240.5" r="234"/><circle class="cls-2" cx="234" cy="240.5" r="230"/><circle class="cls-3" cx="234" cy="240.5" r="225"/><circle class="cls-4" cx="234" cy="240.5" r="222.5"/><g id="图层_21" data-name="图层 21"><polygon class="cls-5" points="232 465.21 285 484 285 295 183 295 183 484 232 465.21"/><polygon class="cls-6" points="203 295 183 295 183 484 203 476.33 203 295"/><polygon class="cls-6" points="265 295 285 295 285 484 265 476.33 265 295"/><g id="图层_25" data-name="图层 25"><polygon class="cls-7" points="140 441.01 164.5 457 164.5 344 115.5 344 115.5 457 140 441.01"/><polygon class="cls-8" points="129.5 344 115.5 344 115.5 457 129.5 447.86 129.5 344"/><polygon class="cls-8" points="150.5 344 164.5 344 164.5 457 150.5 447.86 150.5 344"/><polygon class="cls-7" points="328 441.87 352.5 458 352.5 344 303.5 344 303.5 458 328 441.87"/><polygon class="cls-8" points="317.5 344 303.5 344 303.5 458 317.5 448.78 317.5 344"/><polygon class="cls-8" points="338.5 344 352.5 344 352.5 458 338.5 448.78 338.5 344"/></g><g id="图层_24" data-name="图层 24"><path class="cls-9" d="M331.5,271c65,7,97,72,97,72s-56.78,38.44-118.39,16.22S266.5,264,331.5,271Z"/><path class="cls-10" d="M327.71,277.09c60.84,6.55,90.79,67.39,90.79,67.39s-53.15,36-110.82,15.18S266.86,270.53,327.71,277.09Z"/><path class="cls-11" d="M325.81,280.13c58.76,6.33,87.69,65.09,87.69,65.09s-51.33,34.76-107,14.67S267.05,273.8,325.81,280.13Z"/><path class="cls-4" d="M323.07,283.1c49.61,8.4,71.17,59.83,71.17,59.83s-45.41,26.89-91.71,7S273.45,274.7,323.07,283.1Z"/><path class="cls-12" d="M322.38,287.7c44.95,7.61,64.5,54.21,64.5,54.21s-41.15,24.38-83.11,6.31S277.42,280.09,322.38,287.7Z"/><path class="cls-9" d="M136.19,271c-65,7-97,72-97,72S96,381.44,157.58,359.22,201.19,264,136.19,271Z"/><path class="cls-10" d="M140,277.09c-60.85,6.55-90.8,67.39-90.8,67.39s53.15,36,110.82,15.18S200.83,270.53,140,277.09Z"/><path class="cls-11" d="M141.88,280.13c-58.76,6.33-87.69,65.09-87.69,65.09s51.33,34.76,107,14.67S200.65,273.8,141.88,280.13Z"/><path class="cls-4" d="M144.63,283.1C95,291.5,73.45,342.93,73.45,342.93s45.41,26.89,91.71,7S194.24,274.7,144.63,283.1Z"/><path class="cls-12" d="M145.32,287.7c-45,7.61-64.5,54.21-64.5,54.21s41.15,24.38,83.1,6.31S190.27,280.09,145.32,287.7Z"/></g><g id="图层_23" data-name="图层 23"><path class="cls-13" d="M232.5,219.5c123-67,142-146,142-146s54,112,18,161-118,76-118,76S164.81,256.37,232.5,219.5Z"/><path class="cls-14" d="M239.94,220.88C355.67,157.83,373.55,83.5,373.55,83.5S424.36,188.88,390.49,235s-111,71.51-111,71.51S176.25,255.57,239.94,220.88Z"/><path class="cls-15" d="M288.5,204c64-48,83-94,83-94s24,67,10,101-58,73-58,73"/><path class="cls-16" d="M371.5,110s-14.76,35.73-62.08,77.07L333.5,235s34.27-27.81,38-125Z"/><path class="cls-13" d="M233.82,219.5c-123-67-142-146-142-146s-54,112-18,161,118,76,118,76S301.5,256.37,233.82,219.5Z"/><path class="cls-14" d="M226.38,220.88C110.64,157.83,92.76,83.5,92.76,83.5S42,188.88,75.83,235s111,71.51,111,71.51S290.07,255.57,226.38,220.88Z"/><path class="cls-15" d="M177.82,204c-64-48-83-94-83-94s-24,67-10,101,58,73,58,73"/><path class="cls-16" d="M94.82,110s14.76,35.73,62.07,77.07L132.82,235s-34.28-27.81-38-125Z"/></g><g id="图层_22" data-name="图层 22"><path class="cls-17" d="M170.5,334s-19-39-120-42c58-57,138-57,138-57l5.42,84.11Z"/><path class="cls-18" d="M160.41,314.89s-12.49-25.65-78.91-27.62c38.14-37.48,90.75-37.48,90.75-37.48l3.56,55.31Z"/><path class="cls-17" d="M296.92,334s19-39,120-42c-58-57-138-57-138-57l-5.42,84.11Z"/><path class="cls-18" d="M307,314.89s12.49-25.65,78.91-27.62c-38.14-37.48-90.75-37.48-90.75-37.48l-3.56,55.31Z"/></g><polygon class="cls-19" points="176.05 287 128.05 354 234.05 408 234.05 296.87 176.05 287"/><polygon class="cls-20" points="187.54 287 149.05 345.14 234.05 392 234.05 295.56 187.54 287"/><polygon class="cls-21" points="191.92 287 157.05 341.26 234.05 385 234.05 294.99 191.92 287"/><polygon class="cls-22" points="214.9 287 199.05 337.94 234.05 379 234.05 294.5 214.9 287"/><polygon class="cls-23" points="217.63 287 204.05 332.4 234.05 369 234.05 293.69 217.63 287"/><polygon class="cls-19" points="291.95 287 339.95 354 233.95 408 233.95 296.87 291.95 287"/><polygon class="cls-20" points="280.46 287 318.95 345.14 233.95 392 233.95 295.56 280.46 287"/><polygon class="cls-21" points="276.08 287 310.95 341.26 233.95 385 233.95 294.99 276.08 287"/><polygon class="cls-22" points="253.1 287 268.95 337.94 233.95 379 233.95 294.5 253.1 287"/><polygon class="cls-23" points="250.37 287 263.95 332.4 233.95 369 233.95 293.69 250.37 287"/><rect class="cls-23" x="229.45" y="315" width="8" height="96" rx="4"/></g><g id="图层_26" data-name="图层 26"><circle class="cls-24" cx="234" cy="214.32" r="107.25"/><rect class="cls-25" x="177.59" y="176.91" width="112.82" height="112.82" rx="26.1" transform="translate(-21.54 23.82) rotate(-5.57)"/><rect class="cls-26" x="197.9" y="197.22" width="72.2" height="72.2" rx="36.1"/><rect x="206.92" y="206.24" width="54.15" height="54.15" rx="27.08"/><circle class="cls-25" cx="247.57" cy="207.36" r="6.8"/><path class="cls-27" d="M145,154.4a107.44,107.44,0,0,0-17,76.74,43,43,0,0,0,17-76.74Z"/><path class="cls-27" d="M326.5,251a17,17,0,0,0-9.42,31.15,107.18,107.18,0,0,0,17-29.33A17,17,0,0,0,326.5,251Z"/><circle class="cls-28" cx="149" cy="248.5" r="11.5"/></g><rect class="cls-5" x="244.5" y="41" width="5" height="112" transform="translate(75.94 -105.87) rotate(28.42)"/><rect class="cls-5" x="282.79" y="47.16" width="4.5" height="107.24" transform="translate(82.33 -123.53) rotate(28.42)"/><rect class="cls-5" x="174.72" y="47.22" width="4.73" height="107.11" transform="translate(380.79 105.11) rotate(151.58)"/><rect class="cls-5" x="211.5" y="41" width="5" height="112" transform="translate(448.37 80.45) rotate(151.58)"/><g id="图层_18" data-name="图层 18"><polygon class="cls-29" points="230.5 114 230.5 25 194.5 59 146.5 59 166.22 108.35 230.5 114"/><polygon class="cls-30" points="230.5 114 230.5 29.24 196.21 61.62 150.5 61.62 169.28 108.62 230.5 114"/><path class="cls-31" d="M199.68,108.42,184.5,83h-35s5.64,15.1,26.82,25C194.5,112,199.68,108.42,199.68,108.42Z"/><path class="cls-32" d="M198.5,108.53,184,85H150.5s5.39,14,25.65,23.19C193.55,111.84,198.5,108.53,198.5,108.53Z"/><path class="cls-33" d="M227.68,113.42,212.5,88h-35s5.64,15.1,26.82,25C222.5,117,227.68,113.42,227.68,113.42Z"/><path class="cls-34" d="M195.82,107.92,185.38,91H161.31s3.87,10,18.44,16.67C192.26,110.3,195.82,107.92,195.82,107.92Z"/><path class="cls-35" d="M194.54,107.13,187.68,96H171.84s2.55,6.61,12.14,11C192.2,108.69,194.54,107.13,194.54,107.13Z"/><path class="cls-36" d="M226.5,113.53,212,90H178.5s5.39,14,25.65,23.19C221.55,116.84,226.5,113.53,226.5,113.53Z"/><path class="cls-37" d="M220.86,111.36,210.77,95H187.5s3.75,9.72,17.83,16.12C217.42,113.66,220.86,111.36,220.86,111.36Z"/><path class="cls-34" d="M216.34,109.13,209.48,98H193.65s2.55,6.61,12.13,11C214,110.69,216.34,109.13,216.34,109.13Z"/><polygon class="cls-29" points="231.5 114 231.5 25 267.5 59 315.5 59 295.78 108.35 231.5 114"/><polygon class="cls-30" points="231.5 114 231.5 29.24 265.79 61.62 311.5 61.62 292.72 108.62 231.5 114"/><path class="cls-31" d="M262.32,108.42,277.5,83h35s-5.64,15.1-26.82,25C267.5,112,262.32,108.42,262.32,108.42Z"/><path class="cls-32" d="M263.5,108.53,278,85H311.5s-5.39,14-25.65,23.19C268.45,111.84,263.5,108.53,263.5,108.53Z"/><path class="cls-33" d="M234.32,113.42,249.5,88h35s-5.64,15.1-26.82,25C239.5,117,234.32,113.42,234.32,113.42Z"/><path class="cls-34" d="M266.18,107.92,276.62,91h24.07s-3.87,10-18.44,16.67C269.74,110.3,266.18,107.92,266.18,107.92Z"/><path class="cls-35" d="M267.46,107.13,274.32,96h15.84s-2.55,6.61-12.14,11C269.8,108.69,267.46,107.13,267.46,107.13Z"/><path class="cls-36" d="M235.5,113.53,250,90H283.5s-5.39,14-25.65,23.19C240.45,116.84,235.5,113.53,235.5,113.53Z"/><path class="cls-37" d="M241.14,111.36,251.23,95H274.5s-3.75,9.72-17.83,16.12C244.58,113.66,241.14,111.36,241.14,111.36Z"/><path class="cls-34" d="M245.66,109.13,252.52,98h15.83s-2.55,6.61-12.13,11C248,110.69,245.66,109.13,245.66,109.13Z"/></g><rect class="cls-38" x="155.5" y="107" width="151" height="12" rx="6"/><g id="图层_19" data-name="图层 19"><rect class="cls-5" x="228.5" y="1" width="5" height="112"/></g><path class="cls-39" d="M298.5,117.5c0,20.71-30.22,37.5-67.5,37.5s-67.5-16.79-67.5-37.5"/><path class="cls-40" d="M278.7,117.5c0,14.64-21.36,26.5-47.7,26.5s-47.7-11.86-47.7-26.5"/><rect class="cls-41" x="155.5" y="110" width="151" height="12" rx="6"/><rect class="cls-42" x="155.5" y="111.5" width="151" height="9" rx="4.5"/><rect class="cls-43" x="155.5" y="113" width="151" height="6" rx="3"/><rect class="cls-44" x="155.5" y="115" width="151" height="2" rx="1"/><polygon class="cls-45" points="237.5 41 261.5 65 249.5 82 236.5 65 237.5 41"/><polygon class="cls-46" points="240.26 46.84 258.5 65.08 249.38 78 239.5 65.08 240.26 46.84"/><polygon class="cls-45" points="265.5 66 302.5 66 297.5 79 257.5 79 265.5 66"/><polygon class="cls-46" points="267.43 68 299.5 68 295.17 77 260.5 77 267.43 68"/><polygon class="cls-45" points="224.5 41 200.5 65 212.5 82 225.5 65 224.5 41"/><polygon class="cls-46" points="221.74 46.84 203.5 65.08 212.62 78 222.5 65.08 221.74 46.84"/><polygon class="cls-45" points="194.5 66 157.5 66 162.5 79 202.5 79 194.5 66"/><polygon class="cls-46" points="192.57 68 160.5 68 164.83 77 199.5 77 192.57 68"/><polygon class="cls-5" points="231 53.38 214.15 84.49 231 113 247.85 84.49 231 53.38"/><polygon class="cls-47" points="231 59.12 217.39 84.24 231 107.27 244.61 84.24 231 59.12"/><polygon class="cls-11" points="231 63.13 219.66 84.06 231 103.25 242.34 84.06 231 63.13"/><rect class="cls-48" x="233.62" y="66.57" width="2.12" height="13.34" rx="0.55" transform="translate(-6.68 119.98) rotate(-28.29)"/><polygon class="cls-49" points="219.69 84.02 219.66 84.06 231 103.25 231 89.67 219.69 84.02"/><ellipse class="cls-5" cx="231" cy="14.5" rx="8" ry="14.5"/><path class="cls-50" d="M231.5.05V29c4.18-.47,7.5-6.75,7.5-14.45S235.68.52,231.5.05Z"/><ellipse class="cls-5" cx="279.42" cy="37.11" rx="13.07" ry="7.21" transform="translate(111.5 263.51) rotate(-61)"/><path class="cls-50" d="M286.13,25.93,273.5,48.73c3.5,1.45,8.86-2,12.23-8.12S289.23,28.13,286.13,25.93Z"/><ellipse class="cls-5" cx="182.42" cy="38.11" rx="7.21" ry="13.07" transform="translate(4.4 93.22) rotate(-29)"/><path class="cls-50" d="M175.71,26.93l12.64,22.8c-3.51,1.45-8.87-2-12.23-8.12S172.62,29.13,175.71,26.93Z"/><polygon class="cls-51" points="143.93 38.83 152.07 55.03 143.19 58.53 143.93 38.83"/><polygon class="cls-52" points="143.93 38.83 152.07 55.03 160.17 50 143.93 38.83"/><polygon class="cls-51" points="318.44 38.83 310.3 55.03 319.17 58.53 318.44 38.83"/><polygon class="cls-52" points="318.44 38.83 310.3 55.03 302.19 50 318.44 38.83"/><g id="图层_20" data-name="图层 20"><polygon class="cls-53" points="218.86 60.07 214.05 62.84 223.71 63.86 218.86 60.07"/><polygon class="cls-54" points="218.17 66.56 214.05 62.84 223.71 63.86 218.17 66.56"/><polygon class="cls-55" points="212.9 57.41 214.05 62.84 218.01 53.97 212.9 57.41"/><polygon class="cls-56" points="218.86 60.07 214.05 62.84 218.01 53.97 218.86 60.07"/><polygon class="cls-57" points="208.53 62.26 214.05 62.84 206.84 56.34 208.53 62.26"/><polygon class="cls-58" points="212.9 57.41 214.05 62.84 206.84 56.34 212.9 57.41"/><polygon class="cls-59" points="211.79 67.91 214.05 62.84 205.64 67.69 211.79 67.91"/><polygon class="cls-60" points="208.53 62.26 214.05 62.84 205.64 67.69 208.53 62.26"/><polygon class="cls-61" points="218.17 66.56 214.05 62.84 216.06 72.34 218.17 66.56"/><polygon class="cls-53" points="211.79 67.91 214.05 62.84 216.06 72.34 211.79 67.91"/><polygon class="cls-53" points="183.77 75.22 178.5 73.48 184.17 81.36 183.77 75.22"/><polygon class="cls-54" points="178.47 79.03 178.5 73.48 184.17 81.36 178.47 79.03"/><polygon class="cls-55" points="181.78 69.01 178.5 73.48 187.75 70.52 181.78 69.01"/><polygon class="cls-56" points="183.77 75.22 178.5 73.48 187.75 70.52 183.77 75.22"/><polygon class="cls-57" points="175.25 68.98 178.5 73.48 178.54 63.77 175.25 68.98"/><polygon class="cls-58" points="181.78 69.01 178.5 73.48 178.54 63.77 181.78 69.01"/><polygon class="cls-59" points="173.21 75.17 178.5 73.48 169.28 70.44 173.21 75.17"/><polygon class="cls-60" points="175.25 68.98 178.5 73.48 169.28 70.44 175.25 68.98"/><polygon class="cls-61" points="178.47 79.03 178.5 73.48 172.75 81.31 178.47 79.03"/><polygon class="cls-53" points="173.21 75.17 178.5 73.48 172.75 81.31 173.21 75.17"/><polygon class="cls-53" points="285.77 75.22 280.5 73.48 286.17 81.36 285.77 75.22"/><polygon class="cls-54" points="280.47 79.03 280.5 73.48 286.17 81.36 280.47 79.03"/><polygon class="cls-55" points="283.78 69.01 280.5 73.48 289.75 70.52 283.78 69.01"/><polygon class="cls-56" points="285.77 75.22 280.5 73.48 289.75 70.52 285.77 75.22"/><polygon class="cls-57" points="277.25 68.98 280.5 73.48 280.54 63.77 277.25 68.98"/><polygon class="cls-58" points="283.78 69.01 280.5 73.48 280.54 63.77 283.78 69.01"/><polygon class="cls-59" points="275.21 75.17 280.5 73.48 271.27 70.44 275.21 75.17"/><polygon class="cls-60" points="277.25 68.98 280.5 73.48 271.27 70.44 277.25 68.98"/><polygon class="cls-61" points="280.47 79.03 280.5 73.48 274.75 81.31 280.47 79.03"/><polygon class="cls-53" points="275.21 75.17 280.5 73.48 274.75 81.31 275.21 75.17"/><polygon class="cls-53" points="250.17 68.29 248.16 63.11 245.68 72.5 250.17 68.29"/><polygon class="cls-54" points="243.86 66.62 248.16 63.11 245.68 72.5 243.86 66.62"/><polygon class="cls-55" points="253.7 62.81 248.16 63.11 256.32 68.38 253.7 62.81"/><polygon class="cls-56" points="250.17 68.29 248.16 63.11 256.32 68.38 250.17 68.29"/><polygon class="cls-57" points="249.58 57.75 248.16 63.11 255.69 56.98 249.58 57.75"/><polygon class="cls-58" points="253.7 62.81 248.16 63.11 255.69 56.98 253.7 62.81"/><polygon class="cls-59" points="243.5 60.1 248.16 63.11 244.66 54.06 243.5 60.1"/><polygon class="cls-60" points="249.58 57.75 248.16 63.11 244.66 54.06 249.58 57.75"/><polygon class="cls-61" points="243.86 66.62 248.16 63.11 238.47 63.65 243.86 66.62"/><polygon class="cls-53" points="243.5 60.1 248.16 63.11 238.47 63.65 243.5 60.1"/></g></g></g></svg>