<svg xmlns="http://www.w3.org/2000/svg" viewBox="0 0 414 414"><defs><style>.cls-1{fill:#a086d4;}.cls-2{fill:#4ea06c;}.cls-3{fill:#62c087;}.cls-4{fill:#387947;}.cls-5{fill:#2f6140;}.cls-6{fill:#2d5a3a;}.cls-7{fill:#2c6344;}.cls-8{fill:#4acb71;}.cls-9{fill:#198539;}.cls-10{fill:#95e5ad;}.cls-11{fill:#78e599;}.cls-12{opacity:0.8;}.cls-13{fill:#fefeff;}.cls-14{fill:#fff;}.cls-15{fill:#ff735d;}</style></defs><title>资源 8</title><g id="图层_2" data-name="图层 2"><g id="图层_4" data-name="图层 4"><rect class="cls-1" width="414" height="414" rx="22.34"/><rect class="cls-2" x="131.51" y="67" width="232.12" height="280" rx="25.29"/><path class="cls-3" d="M247.63,67h90.71a25.29,25.29,0,0,1,25.29,25.29V321.71A25.29,25.29,0,0,1,338.34,347H247.63a0,0,0,0,1,0,0V67A0,0,0,0,1,247.63,67Z"/><path class="cls-4" d="M131.51,137H363.63a0,0,0,0,1,0,0V321.71A25.29,25.29,0,0,1,338.34,347H156.8a25.29,25.29,0,0,1-25.29-25.29V137A0,0,0,0,1,131.51,137Z"/><path class="cls-2" d="M247.63,137h116a0,0,0,0,1,0,0V321.71A25.29,25.29,0,0,1,338.34,347H272.92a25.29,25.29,0,0,1-25.29-25.29V137A0,0,0,0,1,247.63,137Z"/><path class="cls-5" d="M131.51,207H363.63a0,0,0,0,1,0,0V321.71A25.29,25.29,0,0,1,338.34,347H156.8a25.29,25.29,0,0,1-25.29-25.29V207A0,0,0,0,1,131.51,207Z"/><path class="cls-4" d="M247.63,207h116a0,0,0,0,1,0,0V321.71A25.29,25.29,0,0,1,338.34,347H272.92a25.29,25.29,0,0,1-25.29-25.29V207A0,0,0,0,1,247.63,207Z"/><path class="cls-6" d="M131.51,277H363.63a0,0,0,0,1,0,0v44.71A25.29,25.29,0,0,1,338.34,347H156.8a25.29,25.29,0,0,1-25.29-25.29V277A0,0,0,0,1,131.51,277Z"/><path class="cls-7" d="M247.63,277h116a0,0,0,0,1,0,0v44.71A25.29,25.29,0,0,1,338.34,347H247.63a0,0,0,0,1,0,0V277A0,0,0,0,1,247.63,277Z"/><rect class="cls-8" x="50.37" y="125" width="161.85" height="161.85" rx="15.91"/><circle class="cls-9" cx="65.92" cy="227.16" r="8.72"/><path class="cls-10" d="M50.37,155v52.74a27.49,27.49,0,0,0,0-52.74Z"/><path class="cls-11" d="M82.51,286.85h34.68a18.66,18.66,0,0,0-34.68,0Z"/><path class="cls-10" d="M196.31,125h-.9a34.39,34.39,0,0,0,16.81,40.1V140.91A15.91,15.91,0,0,0,196.31,125Z"/><path class="cls-9" d="M50.37,246.39v24.54a15.92,15.92,0,0,0,15.91,15.92h3.08a24.76,24.76,0,0,0-19-40.46Z"/><g class="cls-12"><path class="cls-13" d="M107.52,262.81h0A8.51,8.51,0,0,1,97.28,257L71.45,158.67A7.94,7.94,0,0,1,77.63,149h0a8.51,8.51,0,0,1,10.24,5.81l25.83,98.33A7.94,7.94,0,0,1,107.52,262.81Z"/><path class="cls-13" d="M103.45,262.81h0A8.5,8.5,0,0,0,113.68,257l25.83-98.33a7.94,7.94,0,0,0-6.18-9.63h0a8.51,8.51,0,0,0-10.24,5.81L97.27,253.18A7.93,7.93,0,0,0,103.45,262.81Z"/><path class="cls-13" d="M159.14,262.81h0A8.5,8.5,0,0,1,148.91,257l-25.83-98.33a7.94,7.94,0,0,1,6.18-9.63h0a8.51,8.51,0,0,1,10.24,5.81l25.82,98.33A7.93,7.93,0,0,1,159.14,262.81Z"/><path class="cls-13" d="M155.07,262.81h0A8.51,8.51,0,0,0,165.31,257l25.83-98.33A7.93,7.93,0,0,0,185,149h0a8.5,8.5,0,0,0-10.23,5.81l-25.83,98.33A7.94,7.94,0,0,0,155.07,262.81Z"/></g><rect class="cls-14" x="138.78" y="220" width="49.04" height="49.04" rx="24.52" transform="translate(-33.28 25.86) rotate(-8.22)"/><rect class="cls-15" x="147.6" y="228.83" width="31.38" height="31.38" rx="15.69"/><rect x="151.53" y="232.75" width="23.54" height="23.54" rx="11.77"/><circle class="cls-14" cx="169.19" cy="233.24" r="2.95"/></g></g></svg>