<svg xmlns="http://www.w3.org/2000/svg" viewBox="0 0 414 414"><defs><style>.cls-1{fill:#a6aee3;}.cls-2{fill:#4acb71;}.cls-3{fill:#198539;}.cls-4{fill:#95e5ad;}.cls-5{fill:#78e599;}.cls-6,.cls-9{fill:#fff;}.cls-7{fill:#ff735d;}.cls-8{fill:#f4563a;}.cls-9{font-size:55.27px;font-family:PingFangSC-Light-GBpc-EUC-H, PingFang SC;}.cls-10{fill:#ffe85d;}</style></defs><title>资源 12</title><g id="图层_2" data-name="图层 2"><g id="图层_12" data-name="图层 12"><rect class="cls-1" width="414" height="414" rx="22.34"/><g id="图层_13" data-name="图层 13"><rect class="cls-2" x="73.85" y="73.85" width="266.3" height="266.3" rx="55.23"/><path class="cls-3" d="M73.85,273.58v18.59a48,48,0,0,0,33,45.59,40.72,40.72,0,0,0-33-64.18Z"/><circle class="cls-3" cx="99.43" cy="232.07" r="14.34"/><path class="cls-4" d="M311.48,77.91a55.94,55.94,0,0,0-1.3,12,56.52,56.52,0,0,0,30,49.91v-18A48,48,0,0,0,311.48,77.91Z"/><path class="cls-4" d="M78.26,101.74a47.84,47.84,0,0,0-4.41,20.09V187a45.22,45.22,0,0,0,4.41-85.21Z"/><path class="cls-5" d="M126.73,340.15h57.06a30.71,30.71,0,0,0-57.06,0Z"/><rect class="cls-6" x="140.43" y="140.43" width="133.15" height="133.15" rx="58.11" transform="translate(-27.47 31.72) rotate(-8.22)"/><rect class="cls-7" x="164.39" y="164.39" width="85.22" height="85.22" rx="42.61"/><rect x="175.04" y="175.04" width="63.91" height="63.91" rx="31.96"/><circle class="cls-6" cx="223.01" cy="176.37" r="8.02"/><path class="cls-6" d="M107,370.8h1.42l2.13,13.72c.18,1.63.43,3,.61,4.76h.07c.48-1.72.89-3.13,1.33-4.76L115,376h1.44l2.51,8.49c.42,1.63.83,3.07,1.28,4.76h.12c.19-1.69.41-3.13.61-4.76L123,370.8h1.36l-3.21,20.09h-1.79l-2.77-9.52c-.32-1.18-.57-2.31-.86-3.51h-.09c-.31,1.2-.55,2.33-.9,3.51L112,390.89h-1.77Z"/><path class="cls-6" d="M126.86,383.61c0-4.9,3.25-7.7,7.08-7.7s7.09,2.8,7.09,7.7-3.26,7.64-7.09,7.64S126.86,388.44,126.86,383.61Zm12.75,0c0-3.85-2.37-6.51-5.67-6.51s-5.67,2.66-5.67,6.51,2.38,6.45,5.67,6.45S139.61,387.45,139.61,383.61Z"/><path class="cls-6" d="M148,376.27h1.15l.15,3.61h.07a8.27,8.27,0,0,1,6.87-4,6.47,6.47,0,0,1,2.94.6l-.38,1.21a6.85,6.85,0,0,0-2.76-.53c-2.44,0-4.65,1.24-6.69,4.56v9.14H148Z"/><path class="cls-6" d="M168.19,385.42v-8h-4.43V376.4l4.45-.13.18-4.84h1.15v4.84h7.77v1.18h-7.77v8.07c0,2.85.81,4.55,4.07,4.55a10.17,10.17,0,0,0,3.89-.76l.37,1a11.37,11.37,0,0,1-4.45.9C169.41,391.25,168.19,388.9,168.19,385.42Z"/><path class="cls-6" d="M189.88,377.45h-7.32v-1.18h8.67v14.62h-1.35Zm-1.07-6.19a1.43,1.43,0,1,1,1.43,1.46A1.39,1.39,0,0,1,188.81,371.26Z"/><path class="cls-6" d="M201.08,376.27h1.13l.15,2.81h.12c1.69-1.82,3.41-3.17,5.77-3.17,3.55,0,5.25,1.91,5.25,5.87v9.11h-1.35V382c0-3.26-1.22-4.84-4.11-4.84-2.08,0-3.51,1.08-5.61,3.29v10.48h-1.35Z"/><path class="cls-6" d="M242.83,372h-7v-1.21h15.37V372h-7v18.85h-1.4Z"/><path class="cls-6" d="M262.94,377.45h-7.32v-1.18h8.67v14.62h-1.35Zm-1.07-6.19a1.43,1.43,0,1,1,1.43,1.46A1.39,1.39,0,0,1,261.87,371.26Z"/><path class="cls-6" d="M273.18,376.27h1.12l.15,2h.06c.85-1.43,1.74-2.35,3.38-2.35s2.51.85,2.91,2.6c1.05-1.68,1.94-2.6,3.58-2.6,2,0,3.18,1.45,3.18,4.38v10.6h-1.35V380.43c0-2.19-.68-3.32-2.09-3.32S282,378,281,379.86v11h-1.29V380.43c0-2.19-.67-3.32-2.07-3.32s-2.18.92-3.13,2.75v11h-1.34Z"/><path class="cls-6" d="M291.53,383.59a7.32,7.32,0,0,1,7.32-7.68c4,0,6.54,2.57,6.54,6.76a7,7,0,0,1-.08,1.12H292.2v-1.15h12.53l-.57.55c0-4.15-2.16-6.13-5.29-6.13s-6,2.38-6,6.49a6.15,6.15,0,0,0,6.41,6.54,8.31,8.31,0,0,0,4.9-1.58l.56,1a9.53,9.53,0,0,1-5.54,1.72A7.36,7.36,0,0,1,291.53,383.59Z"/><rect class="cls-8" x="265.27" y="45.03" width="96.73" height="66.33" rx="33.16"/><text class="cls-9" transform="translate(286.11 95.55)">18</text><rect class="cls-10" x="167.25" y="82.52" width="22.06" height="134.51" rx="11.03" transform="translate(-47.15 91.48) rotate(-25.53)"/><rect class="cls-10" x="231.89" y="172.67" width="23.25" height="97.47" rx="11.63" transform="translate(-46.38 377.22) rotate(-70.53)"/><circle class="cls-10" cx="206.73" cy="207.02" r="17.93"/></g></g></g></svg>