<svg xmlns="http://www.w3.org/2000/svg" viewBox="0 0 414 414"><defs><style>.cls-1{fill:#8a9ccf;}.cls-2{fill:#678337;}.cls-3{fill:#8ec122;stroke:#61a334;}.cls-11,.cls-3,.cls-32{stroke-miterlimit:10;}.cls-4{fill:#61a334;}.cls-5{fill:#fffffe;}.cls-6{fill:#fdfdfc;}.cls-7{fill:#f1f1d4;}.cls-8{fill:#b4a271;}.cls-9{fill:#d3cb9d;}.cls-10{fill:#b9aa7a;}.cls-11{fill:#896f60;stroke:#ececc6;stroke-width:2px;}.cls-12{fill:#d9d3aa;}.cls-13{fill:#7b7b51;}.cls-14{fill:#5fa332;}.cls-15{fill:#60a32f;}.cls-16{fill:#f3f7ef;}.cls-17{fill:#ee8fb5;}.cls-18{fill:#dc8aa5;}.cls-19{fill:#fff;}.cls-20{fill:#cb9f26;}.cls-21{fill:#adc3cb;}.cls-21,.cls-22,.cls-23{opacity:0.6;}.cls-22{fill:#a99ecb;}.cls-23{fill:#b290cb;}.cls-24{fill:#4acb71;}.cls-25{fill:#ff735d;}.cls-26{fill:#7552c0;}.cls-27{fill:#ffe85d;}.cls-28{fill:#198539;}.cls-29{fill:#95e5ad;}.cls-30{fill:#78e599;}.cls-31{fill:#ffd8bc;}.cls-32,.cls-34{fill:none;}.cls-32{stroke:#ffd8bc;stroke-width:12px;}.cls-33{fill:#fdf8f2;}.cls-35{fill:#383838;}</style></defs><title>资源 6</title><g id="图层_2" data-name="图层 2"><g id="图层_3" data-name="图层 3"><rect class="cls-1" width="414" height="414" rx="22.34"/><rect class="cls-2" x="81" y="92" width="215" height="303"/><rect class="cls-2" x="20" y="282" width="94" height="47" rx="23.5"/><path class="cls-3" d="M335.5,392a27.25,27.25,0,0,1,54.5,0"/><rect class="cls-4" x="72" y="109" width="37" height="286"/><rect class="cls-4" x="285" y="105" width="28" height="290"/><path class="cls-4" d="M307,307h17a13,13,0,0,1,13,13v75a0,0,0,0,1,0,0H307a13,13,0,0,1-13-13V320A13,13,0,0,1,307,307Z"/><path class="cls-4" d="M319,324h33.59A11.41,11.41,0,0,1,364,335.41V392a0,0,0,0,1,0,0H319a0,0,0,0,1,0,0V324A0,0,0,0,1,319,324Z"/><path class="cls-4" d="M55.36,310H103a0,0,0,0,1,0,0v83a0,0,0,0,1,0,0H41a0,0,0,0,1,0,0V324.36A14.36,14.36,0,0,1,55.36,310Z"/><circle class="cls-4" cx="195" cy="107" r="49"/><circle class="cls-4" cx="136" cy="96" r="23"/><circle class="cls-4" cx="88.5" cy="79.5" r="39.5"/><circle class="cls-4" cx="112" cy="129" r="25"/><circle class="cls-4" cx="179.5" cy="63.5" r="17.5"/><ellipse class="cls-4" cx="250.5" cy="79.5" rx="22.5" ry="23.5"/><circle class="cls-4" cx="296.5" cy="80.5" r="29.5"/><circle class="cls-4" cx="313.12" cy="126.24" r="33.5"/><circle class="cls-4" cx="297.5" cy="190.5" r="27.5"/><circle class="cls-4" cx="318" cy="252" r="21"/><circle class="cls-4" cx="361.5" cy="316.5" r="18.5"/><circle class="cls-4" cx="366" cy="350" r="7"/><circle class="cls-4" cx="43.5" cy="309.5" r="13.5"/><circle class="cls-4" cx="74" cy="274" r="24"/><circle class="cls-4" cx="58" cy="249" r="10"/><circle class="cls-4" cx="51" cy="165" r="18"/><circle class="cls-4" cx="39.5" cy="147.5" r="11.5"/><circle class="cls-4" cx="79" cy="153" r="20"/><circle class="cls-4" cx="104" cy="305" r="12"/><circle class="cls-3" cx="88.5" cy="79.5" r="12.5"/><circle class="cls-3" cx="185" cy="93" r="17.5"/><path class="cls-3" d="M25.27,391.58a28.58,28.58,0,1,1,57.16,0"/><polygon class="cls-5" points="126 198.13 126 394 269 394 269 195.36 200.47 163.25 126 198.13"/><polygon class="cls-6" points="91.93 201.6 96.73 211.84 126 198.13 126 185.64 91.93 201.6"/><polygon class="cls-6" points="200.47 150.76 200.47 150.76 200.47 150.75 200.47 150.76"/><polygon class="cls-6" points="195.66 161 200.46 150.76 126 185.64 126 198.13 200.47 163.25 195.66 161"/><polygon class="cls-6" points="309 201.6 269 182.86 269 195.36 304.2 211.84 309 201.6"/><polygon class="cls-6" points="200.46 150.75 200.46 150.76 200.47 150.76 200.46 150.75"/><polygon class="cls-6" points="200.47 150.76 205.27 161 200.47 163.25 269 195.36 269 182.86 200.47 150.76"/><polygon class="cls-6" points="200.46 150.76 195.66 161 200.47 163.25 205.27 161 200.47 150.76 200.47 150.76 200.46 150.76"/><rect class="cls-7" x="156" y="179" width="2" height="212"/><rect class="cls-7" x="177" y="167" width="2" height="225"/><rect class="cls-7" x="198" y="162" width="2.19" height="232"/><rect class="cls-7" x="219" y="169" width="2.13" height="226"/><rect class="cls-7" x="240" y="182" width="2" height="212"/><rect class="cls-8" x="118" y="191" width="20" height="201"/><rect class="cls-8" x="186.5" y="211.5" width="19" height="142" transform="translate(478.5 86.5) rotate(90)"/><rect class="cls-9" x="118" y="191" width="16" height="201"/><rect class="cls-9" x="261" y="191" width="16" height="201"/><rect class="cls-9" x="188" y="210" width="16" height="142" transform="translate(477 85) rotate(90)"/><rect class="cls-10" x="88.67" y="178.64" width="119.86" height="11.32" transform="translate(-64.15 80.44) rotate(-25.1)"/><rect class="cls-10" x="192.4" y="178.64" width="119.86" height="11.32" transform="translate(402.65 458.23) rotate(-154.9)"/><rect class="cls-6" x="88.67" y="175.64" width="119.86" height="11.32" transform="translate(-62.88 80.16) rotate(-25.1)"/><rect class="cls-6" x="192.4" y="175.64" width="119.86" height="11.32" transform="translate(403.92 452.52) rotate(-154.9)"/><rect class="cls-11" x="179.46" y="366" width="42" height="12"/><circle class="cls-12" cx="147.5" cy="298.5" r="2"/><circle class="cls-12" cx="147.5" cy="385" r="2"/><circle class="cls-12" cx="167.5" cy="298.5" r="2"/><circle class="cls-12" cx="167.5" cy="385" r="2"/><circle class="cls-12" cx="188.5" cy="298.5" r="2"/><circle class="cls-12" cx="188.5" cy="385" r="2"/><circle class="cls-12" cx="209.5" cy="298.5" r="2"/><circle class="cls-12" cx="209.5" cy="385" r="2"/><circle class="cls-12" cx="230.5" cy="298.5" r="2"/><circle class="cls-12" cx="230.5" cy="385" r="2"/><circle class="cls-12" cx="251.5" cy="298.5" r="2"/><circle class="cls-12" cx="251.5" cy="385" r="2"/><rect class="cls-13" x="245" y="276" width="8" height="10"/><rect class="cls-13" x="230" y="279.5" width="17" height="3"/><circle class="cls-14" cx="154.5" cy="169.5" r="13.5"/><circle class="cls-4" cx="64.5" cy="203.5" r="31.5"/><path class="cls-15" d="M99.06,391.22a17.22,17.22,0,1,1,34.44,0"/><circle class="cls-16" cx="64.5" cy="203.5" r="14.25"/><circle class="cls-17" cx="64.5" cy="203.5" r="9"/><circle class="cls-18" cx="68" cy="230" r="7"/><circle class="cls-18" cx="90" cy="193" r="7"/><circle class="cls-19" cx="84" cy="104" r="7"/><circle class="cls-18" cx="244" cy="85" r="7"/><circle class="cls-16" cx="296.5" cy="80.5" r="14.25"/><circle class="cls-17" cx="296.5" cy="80.5" r="9"/><circle class="cls-18" cx="336" cy="90" r="7"/><circle class="cls-18" cx="276" cy="311" r="7"/><circle class="cls-19" cx="361.5" cy="316.5" r="7"/><circle class="cls-19" cx="339" cy="339" r="7"/><circle class="cls-19" cx="353.5" cy="352.5" r="3.5"/><circle class="cls-19" cx="66" cy="341" r="7"/><circle class="cls-19" cx="43.5" cy="309.5" r="3.5"/><circle class="cls-18" cx="33" cy="281" r="7"/><circle class="cls-16" cx="74" cy="274" r="11.43"/><circle class="cls-17" cx="74" cy="274" r="7.22"/><circle class="cls-14" cx="276.5" cy="146.5" r="13.5"/><path class="cls-15" d="M127.06,391.22a10.47,10.47,0,0,1,20.94,0"/><path class="cls-3" d="M300.5,393a22.5,22.5,0,0,1,45,0"/><rect class="cls-20" x="17" y="391" width="380" height="7"/><g id="图层_9" data-name="图层 9"><circle class="cls-21" cx="272.68" cy="224.07" r="91"/><circle class="cls-22" cx="272.68" cy="224.07" r="75.03"/><circle class="cls-23" cx="272.68" cy="224.07" r="63.69"/></g><g id="图层_10" data-name="图层 10"><rect class="cls-24" x="209.24" y="259.38" width="23.56" height="7" rx="3.5" transform="translate(-71.93 83.61) rotate(-18.48)"/><rect class="cls-24" x="220.8" y="247.52" width="26.9" height="7" rx="3.5" transform="translate(-99.46 331.8) rotate(-60.59)"/><rect class="cls-24" x="282.97" y="286.37" width="23.56" height="7" rx="3.5" transform="translate(-9.7 569.53) rotate(-87.09)"/><rect class="cls-24" x="285.04" y="259.77" width="7" height="26.9" rx="3.5" transform="translate(-107.75 243.85) rotate(-39.2)"/><rect class="cls-24" x="232.18" y="183.57" width="81" height="81" transform="translate(-78.19 185.98) rotate(-33.22)"/><rect class="cls-19" x="244.11" y="194.36" width="40.5" height="40.5" rx="13.31" transform="translate(-75.85 228.66) rotate(-41.44)"/><rect class="cls-25" x="251.39" y="201.65" width="25.92" height="25.92" rx="12.96" transform="translate(-74.37 179.87) rotate(-33.22)"/><rect class="cls-26" x="254.55" y="235.78" width="61.07" height="8.86" rx="4.43" transform="translate(-85.01 195.42) rotate(-33.22)"/><path class="cls-27" d="M285.72,252.51h0a3.81,3.81,0,0,1-5.27-1.1l-6.2-9.48,6.37-4.17,6.2,9.48A3.8,3.8,0,0,1,285.72,252.51Z"/><path class="cls-27" d="M293.35,247.51h0a3.81,3.81,0,0,1-5.27-1.1L281.91,237l6.37-4.18,6.17,9.43A3.8,3.8,0,0,1,293.35,247.51Z"/><path class="cls-28" d="M249.89,263.19,261,280.13l7.95-5.2a12.39,12.39,0,0,0-19-11.74Z"/><circle class="cls-28" cx="249.48" cy="248.37" r="4.36"/><path class="cls-29" d="M279.43,177.08a17.19,17.19,0,0,0,15.94,7.71l-11-16.79-7,4.61A17.12,17.12,0,0,0,279.43,177.08Z"/><path class="cls-29" d="M221,219.07l14.46,22.08A13.76,13.76,0,0,0,221,219.07Z"/><path class="cls-30" d="M274.44,271.32l14.52-9.5a9.34,9.34,0,0,0-14.52,9.5Z"/><rect x="254.63" y="204.89" width="19.44" height="19.44" rx="9.72" transform="translate(-74.37 179.87) rotate(-33.22)"/><circle class="cls-19" cx="263.32" cy="204.14" r="2.44"/><rect class="cls-24" x="296.02" y="185.63" width="23.56" height="7" rx="3.5" transform="translate(-42.69 276.7) rotate(-45.6)"/><rect class="cls-24" x="300.72" y="169.04" width="26.9" height="7" rx="3.5" transform="translate(129.19 479.56) rotate(-87.71)"/><rect class="cls-24" x="308.97" y="268.37" width="23.56" height="7" rx="3.5" transform="translate(32.96 578.41) rotate(-87.09)"/><rect class="cls-24" x="311.04" y="241.77" width="7" height="26.9" rx="3.5" transform="translate(-90.52 256.23) rotate(-39.2)"/></g><polygon class="cls-31" points="362.64 165.57 324.74 171.4 321.83 157.71 367.98 149.97 362.64 165.57"/><circle class="cls-31" cx="325" cy="164" r="7"/><path class="cls-32" d="M304.94,164.24c-.92-15.79,8.4-33.29,25.16-35.68,15.08-2.15,34.08,8.78,39.43,24.85"/><path class="cls-31" d="M315,146l4-17,44.08,11.93L376,156l-5,9-38-8s23-3,10-15S315,146,315,146Z"/><circle class="cls-31" cx="304.94" cy="164.24" r="6"/><rect class="cls-33" x="365.2" y="142.5" width="31.5" height="46.09" transform="translate(44.51 409.15) rotate(-59.39)"/><rect id="蒙板" class="cls-34" width="414" height="414" rx="22.34"/><polygon class="cls-35" points="414 164.77 374.33 141.3 356.51 171.43 414 205.43 414 164.77"/></g></g></svg>